<mxfile host="app.diagrams.net" modified="2023-11-26T14:37:34.845Z" agent="Mozilla/5.0 (Windows NT 10.0; Win64; x64) AppleWebKit/537.36 (KHTML, like Gecko) Chrome/119.0.0.0 Safari/537.36" etag="KiJanuOFe_46wRGviUtb" version="22.1.4" type="github" pages="5">
  <diagram name="Page-1" id="0783ab3e-0a74-02c8-0abd-f7b4e66b4bec">
    <mxGraphModel dx="521" dy="607" grid="1" gridSize="10" guides="1" tooltips="1" connect="1" arrows="1" fold="1" page="1" pageScale="1" pageWidth="850" pageHeight="1100" background="none" math="0" shadow="0">
      <root>
        <mxCell id="0" />
        <mxCell id="1" parent="0" />
        <mxCell id="1c1d494c118603dd-1" value="Pool" style="swimlane;html=1;childLayout=stackLayout;startSize=20;rounded=0;shadow=0;comic=0;labelBackgroundColor=none;strokeWidth=1;fontFamily=Verdana;fontSize=12;align=center;" parent="1" vertex="1">
          <mxGeometry x="40" y="20" width="750" height="990" as="geometry">
            <mxRectangle x="40" y="20" width="70" height="30" as="alternateBounds" />
          </mxGeometry>
        </mxCell>
        <mxCell id="1c1d494c118603dd-2" value="Lane 1" style="swimlane;html=1;startSize=20;" parent="1c1d494c118603dd-1" vertex="1">
          <mxGeometry y="20" width="250" height="970" as="geometry" />
        </mxCell>
        <mxCell id="1c1d494c118603dd-34" style="edgeStyle=none;rounded=0;html=1;labelBackgroundColor=none;startArrow=none;startFill=0;startSize=5;endArrow=classicThin;endFill=1;endSize=5;jettySize=auto;orthogonalLoop=1;strokeWidth=1;fontFamily=Verdana;fontSize=12" parent="1c1d494c118603dd-2" source="1c1d494c118603dd-6" target="1c1d494c118603dd-10" edge="1">
          <mxGeometry relative="1" as="geometry" />
        </mxCell>
        <mxCell id="1c1d494c118603dd-6" value="Action" style="rounded=1;whiteSpace=wrap;html=1;shadow=0;comic=0;labelBackgroundColor=none;strokeWidth=1;fontFamily=Verdana;fontSize=12;align=center;arcSize=50;" parent="1c1d494c118603dd-2" vertex="1">
          <mxGeometry x="90" y="220" width="100" height="30" as="geometry" />
        </mxCell>
        <mxCell id="1c1d494c118603dd-7" value="Action" style="rounded=1;whiteSpace=wrap;html=1;shadow=0;comic=0;labelBackgroundColor=none;strokeWidth=1;fontFamily=Verdana;fontSize=12;align=center;arcSize=50;" parent="1c1d494c118603dd-2" vertex="1">
          <mxGeometry x="80" y="335" width="100" height="30" as="geometry" />
        </mxCell>
        <mxCell id="1c1d494c118603dd-35" style="edgeStyle=none;rounded=0;html=1;labelBackgroundColor=none;startArrow=none;startFill=0;startSize=5;endArrow=classicThin;endFill=1;endSize=5;jettySize=auto;orthogonalLoop=1;strokeWidth=1;fontFamily=Verdana;fontSize=12" parent="1c1d494c118603dd-2" source="1c1d494c118603dd-10" target="1c1d494c118603dd-7" edge="1">
          <mxGeometry relative="1" as="geometry" />
        </mxCell>
        <mxCell id="1c1d494c118603dd-10" value="Object" style="rounded=0;whiteSpace=wrap;html=1;shadow=0;comic=0;labelBackgroundColor=none;strokeWidth=1;fontFamily=Verdana;fontSize=12;align=center;arcSize=50;" parent="1c1d494c118603dd-2" vertex="1">
          <mxGeometry x="140" y="280" width="70" height="30" as="geometry" />
        </mxCell>
        <mxCell id="1c1d494c118603dd-46" style="edgeStyle=none;rounded=0;html=1;labelBackgroundColor=none;startArrow=none;startFill=0;startSize=5;endArrow=oval;endFill=0;endSize=5;jettySize=auto;orthogonalLoop=1;strokeWidth=1;fontFamily=Verdana;fontSize=12;dashed=1;" parent="1c1d494c118603dd-2" source="1c1d494c118603dd-21" target="1c1d494c118603dd-6" edge="1">
          <mxGeometry relative="1" as="geometry" />
        </mxCell>
        <mxCell id="1c1d494c118603dd-47" style="edgeStyle=none;rounded=0;html=1;dashed=1;labelBackgroundColor=none;startArrow=none;startFill=0;startSize=5;endArrow=oval;endFill=0;endSize=5;jettySize=auto;orthogonalLoop=1;strokeWidth=1;fontFamily=Verdana;fontSize=12" parent="1c1d494c118603dd-2" source="1c1d494c118603dd-21" target="1c1d494c118603dd-10" edge="1">
          <mxGeometry relative="1" as="geometry" />
        </mxCell>
        <mxCell id="1c1d494c118603dd-21" value="Note" style="shape=note;whiteSpace=wrap;html=1;rounded=0;shadow=0;comic=0;labelBackgroundColor=none;strokeWidth=1;fontFamily=Verdana;fontSize=12;align=center;size=20;" parent="1c1d494c118603dd-2" vertex="1">
          <mxGeometry x="20" y="274" width="85" height="42" as="geometry" />
        </mxCell>
        <mxCell id="1c1d494c118603dd-3" value="Lane 2" style="swimlane;html=1;startSize=20;" parent="1c1d494c118603dd-1" vertex="1">
          <mxGeometry x="250" y="20" width="250" height="970" as="geometry" />
        </mxCell>
        <mxCell id="60571a20871a0731-3" value="" style="whiteSpace=wrap;html=1;rounded=0;shadow=0;comic=0;labelBackgroundColor=none;strokeWidth=1;fillColor=#000000;fontFamily=Verdana;fontSize=12;align=center;rotation=0;" parent="1c1d494c118603dd-3" vertex="1">
          <mxGeometry x="30" y="160" width="147" height="10" as="geometry" />
        </mxCell>
        <mxCell id="1c1d494c118603dd-40" style="edgeStyle=none;rounded=0;html=1;labelBackgroundColor=none;startArrow=none;startFill=0;startSize=5;endArrow=classicThin;endFill=1;endSize=5;jettySize=auto;orthogonalLoop=1;strokeWidth=1;fontFamily=Verdana;fontSize=12" parent="1c1d494c118603dd-3" source="1c1d494c118603dd-11" target="1c1d494c118603dd-15" edge="1">
          <mxGeometry relative="1" as="geometry" />
        </mxCell>
        <mxCell id="1c1d494c118603dd-11" value="Action" style="rounded=1;whiteSpace=wrap;html=1;shadow=0;comic=0;labelBackgroundColor=none;strokeWidth=1;fontFamily=Verdana;fontSize=12;align=center;arcSize=50;" parent="1c1d494c118603dd-3" vertex="1">
          <mxGeometry x="64" y="450" width="100" height="30" as="geometry" />
        </mxCell>
        <mxCell id="1c1d494c118603dd-39" style="edgeStyle=none;rounded=0;html=1;labelBackgroundColor=none;startArrow=none;startFill=0;startSize=5;endArrow=classicThin;endFill=1;endSize=5;jettySize=auto;orthogonalLoop=1;strokeWidth=1;fontFamily=Verdana;fontSize=12" parent="1c1d494c118603dd-3" source="1c1d494c118603dd-12" target="1c1d494c118603dd-11" edge="1">
          <mxGeometry relative="1" as="geometry" />
        </mxCell>
        <mxCell id="1c1d494c118603dd-12" value="" style="whiteSpace=wrap;html=1;rounded=0;shadow=0;comic=0;labelBackgroundColor=none;strokeWidth=1;fillColor=#000000;fontFamily=Verdana;fontSize=12;align=center;rotation=0;" parent="1c1d494c118603dd-3" vertex="1">
          <mxGeometry x="40" y="410" width="147" height="10" as="geometry" />
        </mxCell>
        <mxCell id="1c1d494c118603dd-32" style="edgeStyle=orthogonalEdgeStyle;rounded=0;html=1;entryX=0.25;entryY=0;labelBackgroundColor=none;startArrow=none;startFill=0;startSize=5;endArrow=classicThin;endFill=1;endSize=5;jettySize=auto;orthogonalLoop=1;strokeWidth=1;fontFamily=Verdana;fontSize=12" parent="1c1d494c118603dd-3" source="1c1d494c118603dd-14" target="1c1d494c118603dd-12" edge="1">
          <mxGeometry relative="1" as="geometry" />
        </mxCell>
        <mxCell id="1c1d494c118603dd-14" value="Object" style="rounded=0;whiteSpace=wrap;html=1;shadow=0;comic=0;labelBackgroundColor=none;strokeWidth=1;fontFamily=Verdana;fontSize=12;align=center;arcSize=50;" parent="1c1d494c118603dd-3" vertex="1">
          <mxGeometry x="-40" y="365" width="70" height="30" as="geometry" />
        </mxCell>
        <mxCell id="1c1d494c118603dd-41" style="edgeStyle=none;rounded=0;html=1;labelBackgroundColor=none;startArrow=none;startFill=0;startSize=5;endArrow=classicThin;endFill=1;endSize=5;jettySize=auto;orthogonalLoop=1;strokeWidth=1;fontFamily=Verdana;fontSize=12" parent="1c1d494c118603dd-3" source="1c1d494c118603dd-15" target="1c1d494c118603dd-16" edge="1">
          <mxGeometry relative="1" as="geometry" />
        </mxCell>
        <mxCell id="1c1d494c118603dd-15" value="Object" style="rounded=0;whiteSpace=wrap;html=1;shadow=0;comic=0;labelBackgroundColor=none;strokeWidth=1;fontFamily=Verdana;fontSize=12;align=center;arcSize=50;" parent="1c1d494c118603dd-3" vertex="1">
          <mxGeometry x="125" y="510" width="70" height="30" as="geometry" />
        </mxCell>
        <mxCell id="1c1d494c118603dd-16" value="Action" style="rounded=1;whiteSpace=wrap;html=1;shadow=0;comic=0;labelBackgroundColor=none;strokeWidth=1;fontFamily=Verdana;fontSize=12;align=center;arcSize=50;" parent="1c1d494c118603dd-3" vertex="1">
          <mxGeometry x="85" y="580" width="100" height="30" as="geometry" />
        </mxCell>
        <mxCell id="1c1d494c118603dd-52" style="edgeStyle=none;rounded=0;html=1;dashed=1;labelBackgroundColor=none;startArrow=none;startFill=0;startSize=5;endArrow=oval;endFill=0;endSize=5;jettySize=auto;orthogonalLoop=1;strokeWidth=1;fontFamily=Verdana;fontSize=12" parent="1c1d494c118603dd-3" source="1c1d494c118603dd-23" target="1c1d494c118603dd-11" edge="1">
          <mxGeometry relative="1" as="geometry" />
        </mxCell>
        <mxCell id="1c1d494c118603dd-53" style="edgeStyle=none;rounded=0;html=1;dashed=1;labelBackgroundColor=none;startArrow=none;startFill=0;startSize=5;endArrow=oval;endFill=0;endSize=5;jettySize=auto;orthogonalLoop=1;strokeWidth=1;fontFamily=Verdana;fontSize=12" parent="1c1d494c118603dd-3" source="1c1d494c118603dd-23" target="1c1d494c118603dd-15" edge="1">
          <mxGeometry relative="1" as="geometry" />
        </mxCell>
        <mxCell id="1c1d494c118603dd-23" value="Note" style="shape=note;whiteSpace=wrap;html=1;rounded=0;shadow=0;comic=0;labelBackgroundColor=none;strokeWidth=1;fontFamily=Verdana;fontSize=12;align=center;size=20;" parent="1c1d494c118603dd-3" vertex="1">
          <mxGeometry x="10" y="510" width="90" height="55" as="geometry" />
        </mxCell>
        <mxCell id="1c1d494c118603dd-54" style="edgeStyle=none;rounded=0;html=1;dashed=1;labelBackgroundColor=none;startArrow=none;startFill=0;startSize=5;endArrow=oval;endFill=0;endSize=5;jettySize=auto;orthogonalLoop=1;strokeWidth=1;fontFamily=Verdana;fontSize=12" parent="1c1d494c118603dd-3" source="1c1d494c118603dd-24" target="1c1d494c118603dd-16" edge="1">
          <mxGeometry relative="1" as="geometry" />
        </mxCell>
        <mxCell id="1c1d494c118603dd-24" value="Note" style="shape=note;whiteSpace=wrap;html=1;rounded=0;shadow=0;comic=0;labelBackgroundColor=none;strokeWidth=1;fontFamily=Verdana;fontSize=12;align=center;size=20;" parent="1c1d494c118603dd-3" vertex="1">
          <mxGeometry x="40" y="648" width="105" height="55" as="geometry" />
        </mxCell>
        <mxCell id="1c1d494c118603dd-4" value="Lane 3" style="swimlane;html=1;startSize=20;" parent="1c1d494c118603dd-1" vertex="1">
          <mxGeometry x="500" y="20" width="250" height="970" as="geometry" />
        </mxCell>
        <mxCell id="1c1d494c118603dd-27" style="edgeStyle=orthogonalEdgeStyle;rounded=0;html=1;labelBackgroundColor=none;startArrow=none;startFill=0;startSize=5;endArrow=classicThin;endFill=1;endSize=5;jettySize=auto;orthogonalLoop=1;strokeWidth=1;fontFamily=Verdana;fontSize=12" parent="1c1d494c118603dd-4" source="60571a20871a0731-4" target="60571a20871a0731-8" edge="1">
          <mxGeometry relative="1" as="geometry" />
        </mxCell>
        <mxCell id="60571a20871a0731-4" value="" style="ellipse;whiteSpace=wrap;html=1;rounded=0;shadow=0;comic=0;labelBackgroundColor=none;strokeWidth=1;fillColor=#000000;fontFamily=Verdana;fontSize=12;align=center;" parent="1c1d494c118603dd-4" vertex="1">
          <mxGeometry x="80" y="40" width="40" height="40" as="geometry" />
        </mxCell>
        <mxCell id="60571a20871a0731-8" value="Action" style="rounded=1;whiteSpace=wrap;html=1;shadow=0;comic=0;labelBackgroundColor=none;strokeWidth=1;fontFamily=Verdana;fontSize=12;align=center;arcSize=50;" parent="1c1d494c118603dd-4" vertex="1">
          <mxGeometry x="50" y="110" width="100" height="30" as="geometry" />
        </mxCell>
        <mxCell id="1c1d494c118603dd-33" style="rounded=0;html=1;labelBackgroundColor=none;startArrow=none;startFill=0;startSize=5;endArrow=classicThin;endFill=1;endSize=5;jettySize=auto;orthogonalLoop=1;strokeWidth=1;fontFamily=Verdana;fontSize=12" parent="1c1d494c118603dd-4" source="1c1d494c118603dd-5" target="1c1d494c118603dd-9" edge="1">
          <mxGeometry relative="1" as="geometry" />
        </mxCell>
        <mxCell id="1c1d494c118603dd-5" value="Action" style="rounded=1;whiteSpace=wrap;html=1;shadow=0;comic=0;labelBackgroundColor=none;strokeWidth=1;fontFamily=Verdana;fontSize=12;align=center;arcSize=50;" parent="1c1d494c118603dd-4" vertex="1">
          <mxGeometry x="45" y="208" width="100" height="30" as="geometry" />
        </mxCell>
        <mxCell id="1c1d494c118603dd-38" style="edgeStyle=none;rounded=0;html=1;labelBackgroundColor=none;startArrow=none;startFill=0;startSize=5;endArrow=classicThin;endFill=1;endSize=5;jettySize=auto;orthogonalLoop=1;strokeWidth=1;fontFamily=Verdana;fontSize=12" parent="1c1d494c118603dd-4" source="1c1d494c118603dd-8" target="1c1d494c118603dd-13" edge="1">
          <mxGeometry relative="1" as="geometry" />
        </mxCell>
        <mxCell id="1c1d494c118603dd-8" value="Action" style="rounded=1;whiteSpace=wrap;html=1;shadow=0;comic=0;labelBackgroundColor=none;strokeWidth=1;fontFamily=Verdana;fontSize=12;align=center;arcSize=50;" parent="1c1d494c118603dd-4" vertex="1">
          <mxGeometry x="85" y="330" width="100" height="30" as="geometry" />
        </mxCell>
        <mxCell id="1c1d494c118603dd-37" style="edgeStyle=none;rounded=0;html=1;labelBackgroundColor=none;startArrow=none;startFill=0;startSize=5;endArrow=classicThin;endFill=1;endSize=5;jettySize=auto;orthogonalLoop=1;strokeWidth=1;fontFamily=Verdana;fontSize=12" parent="1c1d494c118603dd-4" source="1c1d494c118603dd-9" target="1c1d494c118603dd-8" edge="1">
          <mxGeometry relative="1" as="geometry" />
        </mxCell>
        <mxCell id="1c1d494c118603dd-9" value="Object" style="rounded=0;whiteSpace=wrap;html=1;shadow=0;comic=0;labelBackgroundColor=none;strokeWidth=1;fontFamily=Verdana;fontSize=12;align=center;arcSize=50;" parent="1c1d494c118603dd-4" vertex="1">
          <mxGeometry x="15" y="268" width="70" height="30" as="geometry" />
        </mxCell>
        <mxCell id="1c1d494c118603dd-13" value="Object" style="rounded=0;whiteSpace=wrap;html=1;shadow=0;comic=0;labelBackgroundColor=none;strokeWidth=1;fontFamily=Verdana;fontSize=12;align=center;arcSize=50;" parent="1c1d494c118603dd-4" vertex="1">
          <mxGeometry x="-35" y="360" width="70" height="30" as="geometry" />
        </mxCell>
        <mxCell id="1c1d494c118603dd-43" style="edgeStyle=none;rounded=0;html=1;labelBackgroundColor=none;startArrow=none;startFill=0;startSize=5;endArrow=classicThin;endFill=1;endSize=5;jettySize=auto;orthogonalLoop=1;strokeWidth=1;fontFamily=Verdana;fontSize=12" parent="1c1d494c118603dd-4" source="1c1d494c118603dd-17" target="1c1d494c118603dd-18" edge="1">
          <mxGeometry relative="1" as="geometry" />
        </mxCell>
        <mxCell id="1c1d494c118603dd-17" value="Object" style="rounded=0;whiteSpace=wrap;html=1;shadow=0;comic=0;labelBackgroundColor=none;strokeWidth=1;fontFamily=Verdana;fontSize=12;align=center;arcSize=50;" parent="1c1d494c118603dd-4" vertex="1">
          <mxGeometry x="-35" y="610" width="70" height="30" as="geometry" />
        </mxCell>
        <mxCell id="1c1d494c118603dd-44" style="edgeStyle=none;rounded=0;html=1;labelBackgroundColor=none;startArrow=none;startFill=0;startSize=5;endArrow=classicThin;endFill=1;endSize=5;jettySize=auto;orthogonalLoop=1;strokeWidth=1;fontFamily=Verdana;fontSize=12" parent="1c1d494c118603dd-4" source="1c1d494c118603dd-18" target="1c1d494c118603dd-19" edge="1">
          <mxGeometry relative="1" as="geometry" />
        </mxCell>
        <mxCell id="1c1d494c118603dd-18" value="Action" style="rounded=1;whiteSpace=wrap;html=1;shadow=0;comic=0;labelBackgroundColor=none;strokeWidth=1;fontFamily=Verdana;fontSize=12;align=center;arcSize=50;" parent="1c1d494c118603dd-4" vertex="1">
          <mxGeometry x="70" y="670" width="100" height="30" as="geometry" />
        </mxCell>
        <mxCell id="1c1d494c118603dd-45" style="edgeStyle=none;rounded=0;html=1;labelBackgroundColor=none;startArrow=none;startFill=0;startSize=5;endArrow=classicThin;endFill=1;endSize=5;jettySize=auto;orthogonalLoop=1;strokeWidth=1;fontFamily=Verdana;fontSize=12" parent="1c1d494c118603dd-4" source="1c1d494c118603dd-19" target="60571a20871a0731-5" edge="1">
          <mxGeometry relative="1" as="geometry" />
        </mxCell>
        <mxCell id="1c1d494c118603dd-19" value="Action" style="rounded=1;whiteSpace=wrap;html=1;shadow=0;comic=0;labelBackgroundColor=none;strokeWidth=1;fontFamily=Verdana;fontSize=12;align=center;arcSize=50;" parent="1c1d494c118603dd-4" vertex="1">
          <mxGeometry x="70" y="810" width="100" height="30" as="geometry" />
        </mxCell>
        <mxCell id="60571a20871a0731-5" value="" style="shape=mxgraph.bpmn.shape;html=1;verticalLabelPosition=bottom;labelBackgroundColor=#ffffff;verticalAlign=top;perimeter=ellipsePerimeter;outline=end;symbol=terminate;rounded=0;shadow=0;comic=0;strokeWidth=1;fontFamily=Verdana;fontSize=12;align=center;" parent="1c1d494c118603dd-4" vertex="1">
          <mxGeometry x="100" y="880" width="40" height="40" as="geometry" />
        </mxCell>
        <mxCell id="1c1d494c118603dd-48" style="edgeStyle=none;rounded=0;html=1;dashed=1;labelBackgroundColor=none;startArrow=none;startFill=0;startSize=5;endArrow=oval;endFill=0;endSize=5;jettySize=auto;orthogonalLoop=1;strokeWidth=1;fontFamily=Verdana;fontSize=12" parent="1c1d494c118603dd-4" source="1c1d494c118603dd-20" target="1c1d494c118603dd-5" edge="1">
          <mxGeometry relative="1" as="geometry" />
        </mxCell>
        <mxCell id="1c1d494c118603dd-49" style="edgeStyle=none;rounded=0;html=1;dashed=1;labelBackgroundColor=none;startArrow=none;startFill=0;startSize=5;endArrow=oval;endFill=0;endSize=5;jettySize=auto;orthogonalLoop=1;strokeWidth=1;fontFamily=Verdana;fontSize=12" parent="1c1d494c118603dd-4" source="1c1d494c118603dd-20" target="1c1d494c118603dd-9" edge="1">
          <mxGeometry relative="1" as="geometry" />
        </mxCell>
        <mxCell id="1c1d494c118603dd-20" value="Note" style="shape=note;whiteSpace=wrap;html=1;rounded=0;shadow=0;comic=0;labelBackgroundColor=none;strokeWidth=1;fontFamily=Verdana;fontSize=12;align=center;size=20;" parent="1c1d494c118603dd-4" vertex="1">
          <mxGeometry x="160" y="256" width="75" height="44" as="geometry" />
        </mxCell>
        <mxCell id="1c1d494c118603dd-50" style="edgeStyle=none;rounded=0;html=1;dashed=1;labelBackgroundColor=none;startArrow=none;startFill=0;startSize=5;endArrow=oval;endFill=0;endSize=5;jettySize=auto;orthogonalLoop=1;strokeWidth=1;fontFamily=Verdana;fontSize=12" parent="1c1d494c118603dd-4" source="1c1d494c118603dd-22" target="1c1d494c118603dd-8" edge="1">
          <mxGeometry relative="1" as="geometry" />
        </mxCell>
        <mxCell id="1c1d494c118603dd-51" style="edgeStyle=none;rounded=0;html=1;dashed=1;labelBackgroundColor=none;startArrow=none;startFill=0;startSize=5;endArrow=oval;endFill=0;endSize=5;jettySize=auto;orthogonalLoop=1;strokeWidth=1;fontFamily=Verdana;fontSize=12" parent="1c1d494c118603dd-4" source="1c1d494c118603dd-22" target="1c1d494c118603dd-13" edge="1">
          <mxGeometry relative="1" as="geometry" />
        </mxCell>
        <mxCell id="1c1d494c118603dd-22" value="Note" style="shape=note;whiteSpace=wrap;html=1;rounded=0;shadow=0;comic=0;labelBackgroundColor=none;strokeWidth=1;fontFamily=Verdana;fontSize=12;align=center;size=20;" parent="1c1d494c118603dd-4" vertex="1">
          <mxGeometry x="110" y="415" width="105" height="55" as="geometry" />
        </mxCell>
        <mxCell id="1c1d494c118603dd-56" style="edgeStyle=none;rounded=0;html=1;dashed=1;labelBackgroundColor=none;startArrow=none;startFill=0;startSize=5;endArrow=oval;endFill=0;endSize=5;jettySize=auto;orthogonalLoop=1;strokeWidth=1;fontFamily=Verdana;fontSize=12" parent="1c1d494c118603dd-4" source="1c1d494c118603dd-25" target="1c1d494c118603dd-18" edge="1">
          <mxGeometry relative="1" as="geometry" />
        </mxCell>
        <mxCell id="1c1d494c118603dd-57" style="edgeStyle=none;rounded=0;html=1;dashed=1;labelBackgroundColor=none;startArrow=none;startFill=0;startSize=5;endArrow=oval;endFill=0;endSize=5;jettySize=auto;orthogonalLoop=1;strokeWidth=1;fontFamily=Verdana;fontSize=12" parent="1c1d494c118603dd-4" source="1c1d494c118603dd-25" target="1c1d494c118603dd-17" edge="1">
          <mxGeometry relative="1" as="geometry" />
        </mxCell>
        <mxCell id="1c1d494c118603dd-25" value="Note" style="shape=note;whiteSpace=wrap;html=1;rounded=0;shadow=0;comic=0;labelBackgroundColor=none;strokeWidth=1;fontFamily=Verdana;fontSize=12;align=center;size=20;" parent="1c1d494c118603dd-4" vertex="1">
          <mxGeometry x="120" y="590" width="115" height="50" as="geometry" />
        </mxCell>
        <mxCell id="1c1d494c118603dd-58" style="edgeStyle=none;rounded=0;html=1;dashed=1;labelBackgroundColor=none;startArrow=none;startFill=0;startSize=5;endArrow=oval;endFill=0;endSize=5;jettySize=auto;orthogonalLoop=1;strokeWidth=1;fontFamily=Verdana;fontSize=12" parent="1c1d494c118603dd-4" source="1c1d494c118603dd-26" target="1c1d494c118603dd-19" edge="1">
          <mxGeometry relative="1" as="geometry" />
        </mxCell>
        <mxCell id="1c1d494c118603dd-26" value="Note" style="shape=note;whiteSpace=wrap;html=1;rounded=0;shadow=0;comic=0;labelBackgroundColor=none;strokeWidth=1;fontFamily=Verdana;fontSize=12;align=center;size=20;" parent="1c1d494c118603dd-4" vertex="1">
          <mxGeometry x="150" y="740" width="95" height="45" as="geometry" />
        </mxCell>
        <mxCell id="1c1d494c118603dd-28" style="edgeStyle=orthogonalEdgeStyle;rounded=0;html=1;entryX=0.5;entryY=0;labelBackgroundColor=none;startArrow=none;startFill=0;startSize=5;endArrow=classicThin;endFill=1;endSize=5;jettySize=auto;orthogonalLoop=1;strokeWidth=1;fontFamily=Verdana;fontSize=12" parent="1c1d494c118603dd-1" source="60571a20871a0731-8" target="60571a20871a0731-3" edge="1">
          <mxGeometry relative="1" as="geometry">
            <Array as="points">
              <mxPoint x="354" y="145" />
            </Array>
          </mxGeometry>
        </mxCell>
        <mxCell id="1c1d494c118603dd-29" style="edgeStyle=orthogonalEdgeStyle;rounded=0;html=1;exitX=0.75;exitY=1;labelBackgroundColor=none;startArrow=none;startFill=0;startSize=5;endArrow=classicThin;endFill=1;endSize=5;jettySize=auto;orthogonalLoop=1;strokeWidth=1;fontFamily=Verdana;fontSize=12" parent="1c1d494c118603dd-1" source="60571a20871a0731-3" target="1c1d494c118603dd-5" edge="1">
          <mxGeometry relative="1" as="geometry">
            <Array as="points">
              <mxPoint x="390" y="210" />
              <mxPoint x="595" y="210" />
            </Array>
          </mxGeometry>
        </mxCell>
        <mxCell id="1c1d494c118603dd-30" style="edgeStyle=orthogonalEdgeStyle;rounded=0;html=1;exitX=0.25;exitY=1;entryX=0.5;entryY=0;labelBackgroundColor=none;startArrow=none;startFill=0;startSize=5;endArrow=classicThin;endFill=1;endSize=5;jettySize=auto;orthogonalLoop=1;strokeWidth=1;fontFamily=Verdana;fontSize=12" parent="1c1d494c118603dd-1" source="60571a20871a0731-3" target="1c1d494c118603dd-6" edge="1">
          <mxGeometry relative="1" as="geometry">
            <Array as="points">
              <mxPoint x="317" y="210" />
              <mxPoint x="140" y="210" />
            </Array>
          </mxGeometry>
        </mxCell>
        <mxCell id="1c1d494c118603dd-31" style="edgeStyle=orthogonalEdgeStyle;rounded=0;html=1;entryX=0.75;entryY=0;labelBackgroundColor=none;startArrow=none;startFill=0;startSize=5;endArrow=classicThin;endFill=1;endSize=5;jettySize=auto;orthogonalLoop=1;strokeWidth=1;fontFamily=Verdana;fontSize=12" parent="1c1d494c118603dd-1" source="1c1d494c118603dd-13" target="1c1d494c118603dd-12" edge="1">
          <mxGeometry relative="1" as="geometry" />
        </mxCell>
        <mxCell id="1c1d494c118603dd-36" style="edgeStyle=none;rounded=0;html=1;labelBackgroundColor=none;startArrow=none;startFill=0;startSize=5;endArrow=classicThin;endFill=1;endSize=5;jettySize=auto;orthogonalLoop=1;strokeWidth=1;fontFamily=Verdana;fontSize=12" parent="1c1d494c118603dd-1" source="1c1d494c118603dd-7" target="1c1d494c118603dd-14" edge="1">
          <mxGeometry relative="1" as="geometry" />
        </mxCell>
        <mxCell id="1c1d494c118603dd-42" style="edgeStyle=none;rounded=0;html=1;labelBackgroundColor=none;startArrow=none;startFill=0;startSize=5;endArrow=classicThin;endFill=1;endSize=5;jettySize=auto;orthogonalLoop=1;strokeWidth=1;fontFamily=Verdana;fontSize=12" parent="1c1d494c118603dd-1" source="1c1d494c118603dd-16" target="1c1d494c118603dd-17" edge="1">
          <mxGeometry relative="1" as="geometry" />
        </mxCell>
        <mxCell id="1c1d494c118603dd-55" style="edgeStyle=none;rounded=0;html=1;dashed=1;labelBackgroundColor=none;startArrow=none;startFill=0;startSize=5;endArrow=oval;endFill=0;endSize=5;jettySize=auto;orthogonalLoop=1;strokeWidth=1;fontFamily=Verdana;fontSize=12" parent="1c1d494c118603dd-1" source="1c1d494c118603dd-24" target="1c1d494c118603dd-17" edge="1">
          <mxGeometry relative="1" as="geometry" />
        </mxCell>
      </root>
    </mxGraphModel>
  </diagram>
  <diagram id="BwVKUBknlW5hjdiv3oCj" name="Pagină-2">
    <mxGraphModel dx="2501" dy="782" grid="1" gridSize="10" guides="1" tooltips="1" connect="1" arrows="1" fold="1" page="1" pageScale="1" pageWidth="827" pageHeight="1169" math="0" shadow="0">
      <root>
        <mxCell id="0" />
        <mxCell id="1" parent="0" />
        <mxCell id="9M4mmDzXD5PrZpIaR2dJ-13" value="" style="edgeStyle=orthogonalEdgeStyle;rounded=0;orthogonalLoop=1;jettySize=auto;html=1;" parent="1" source="EV6wassystGDJJPWKZa4-1" edge="1">
          <mxGeometry relative="1" as="geometry">
            <mxPoint x="-740" y="80" as="targetPoint" />
          </mxGeometry>
        </mxCell>
        <mxCell id="EV6wassystGDJJPWKZa4-1" value="" style="ellipse;whiteSpace=wrap;html=1;rounded=0;shadow=0;comic=0;labelBackgroundColor=none;strokeWidth=1;fillColor=#000000;fontFamily=Verdana;fontSize=12;align=center;" parent="1" vertex="1">
          <mxGeometry x="-827" y="60" width="40" height="40" as="geometry" />
        </mxCell>
        <mxCell id="9M4mmDzXD5PrZpIaR2dJ-22" style="edgeStyle=orthogonalEdgeStyle;rounded=0;orthogonalLoop=1;jettySize=auto;html=1;entryX=0.5;entryY=1;entryDx=0;entryDy=0;" parent="1" source="9M4mmDzXD5PrZpIaR2dJ-1" target="9M4mmDzXD5PrZpIaR2dJ-20" edge="1">
          <mxGeometry relative="1" as="geometry" />
        </mxCell>
        <mxCell id="9M4mmDzXD5PrZpIaR2dJ-23" style="edgeStyle=orthogonalEdgeStyle;rounded=0;orthogonalLoop=1;jettySize=auto;html=1;entryX=0.5;entryY=1;entryDx=0;entryDy=0;" parent="1" source="9M4mmDzXD5PrZpIaR2dJ-1" target="9M4mmDzXD5PrZpIaR2dJ-16" edge="1">
          <mxGeometry relative="1" as="geometry" />
        </mxCell>
        <mxCell id="9M4mmDzXD5PrZpIaR2dJ-24" style="edgeStyle=orthogonalEdgeStyle;rounded=0;orthogonalLoop=1;jettySize=auto;html=1;entryX=0.5;entryY=1;entryDx=0;entryDy=0;" parent="1" source="9M4mmDzXD5PrZpIaR2dJ-1" target="9M4mmDzXD5PrZpIaR2dJ-15" edge="1">
          <mxGeometry relative="1" as="geometry" />
        </mxCell>
        <mxCell id="9M4mmDzXD5PrZpIaR2dJ-25" style="edgeStyle=orthogonalEdgeStyle;rounded=0;orthogonalLoop=1;jettySize=auto;html=1;entryX=0.5;entryY=1;entryDx=0;entryDy=0;" parent="1" source="9M4mmDzXD5PrZpIaR2dJ-1" target="9M4mmDzXD5PrZpIaR2dJ-14" edge="1">
          <mxGeometry relative="1" as="geometry" />
        </mxCell>
        <mxCell id="9M4mmDzXD5PrZpIaR2dJ-1" value="" style="ellipse;html=1;shape=endState;fillColor=#000000;strokeColor=#ff0000;" parent="1" vertex="1">
          <mxGeometry x="-430" y="730" width="60" height="50" as="geometry" />
        </mxCell>
        <mxCell id="9M4mmDzXD5PrZpIaR2dJ-11" value="" style="edgeStyle=orthogonalEdgeStyle;rounded=0;orthogonalLoop=1;jettySize=auto;html=1;" parent="1" source="9M4mmDzXD5PrZpIaR2dJ-2" target="9M4mmDzXD5PrZpIaR2dJ-4" edge="1">
          <mxGeometry relative="1" as="geometry" />
        </mxCell>
        <mxCell id="9M4mmDzXD5PrZpIaR2dJ-2" value="Admin" style="rounded=1;whiteSpace=wrap;html=1;arcSize=40;fontColor=#000000;fillColor=#ffffc0;strokeColor=#ff0000;" parent="1" vertex="1">
          <mxGeometry x="-570" y="60" width="120" height="40" as="geometry" />
        </mxCell>
        <mxCell id="9M4mmDzXD5PrZpIaR2dJ-3" value="" style="edgeStyle=orthogonalEdgeStyle;html=1;verticalAlign=bottom;endArrow=open;endSize=8;strokeColor=#ff0000;rounded=0;" parent="1" source="9M4mmDzXD5PrZpIaR2dJ-2" edge="1">
          <mxGeometry relative="1" as="geometry">
            <mxPoint x="-560" y="160" as="targetPoint" />
          </mxGeometry>
        </mxCell>
        <mxCell id="9M4mmDzXD5PrZpIaR2dJ-12" value="" style="edgeStyle=orthogonalEdgeStyle;rounded=0;orthogonalLoop=1;jettySize=auto;html=1;" parent="1" source="9M4mmDzXD5PrZpIaR2dJ-4" target="9M4mmDzXD5PrZpIaR2dJ-6" edge="1">
          <mxGeometry relative="1" as="geometry" />
        </mxCell>
        <mxCell id="9M4mmDzXD5PrZpIaR2dJ-4" value="Teacher" style="rounded=1;whiteSpace=wrap;html=1;arcSize=40;fontColor=#000000;fillColor=#ffffc0;strokeColor=#ff0000;" parent="1" vertex="1">
          <mxGeometry x="-400" y="60" width="120" height="40" as="geometry" />
        </mxCell>
        <mxCell id="9M4mmDzXD5PrZpIaR2dJ-5" value="" style="edgeStyle=orthogonalEdgeStyle;html=1;verticalAlign=bottom;endArrow=open;endSize=8;strokeColor=#ff0000;rounded=0;entryX=0.25;entryY=0;entryDx=0;entryDy=0;" parent="1" source="9M4mmDzXD5PrZpIaR2dJ-4" target="9M4mmDzXD5PrZpIaR2dJ-15" edge="1">
          <mxGeometry relative="1" as="geometry">
            <mxPoint x="-400" y="160" as="targetPoint" />
          </mxGeometry>
        </mxCell>
        <mxCell id="9M4mmDzXD5PrZpIaR2dJ-6" value="Student" style="rounded=1;whiteSpace=wrap;html=1;arcSize=40;fontColor=#000000;fillColor=#ffffc0;strokeColor=#ff0000;" parent="1" vertex="1">
          <mxGeometry x="-190" y="60" width="120" height="40" as="geometry" />
        </mxCell>
        <mxCell id="9M4mmDzXD5PrZpIaR2dJ-7" value="" style="edgeStyle=orthogonalEdgeStyle;html=1;verticalAlign=bottom;endArrow=open;endSize=8;strokeColor=#ff0000;rounded=0;" parent="1" edge="1">
          <mxGeometry relative="1" as="geometry">
            <mxPoint x="-170" y="160" as="targetPoint" />
            <mxPoint x="-80" y="100" as="sourcePoint" />
            <Array as="points">
              <mxPoint x="-80" y="110" />
              <mxPoint x="-169" y="110" />
            </Array>
          </mxGeometry>
        </mxCell>
        <mxCell id="9M4mmDzXD5PrZpIaR2dJ-14" value="&lt;div&gt;-I want to change my optional preference list so I can have greater control over the optionals I end up in.&lt;/div&gt;&lt;div&gt;-I want to see all details of an optional so I can know what to choose.&lt;/div&gt;&lt;div&gt;-I want to see previous students&#39; reviews so I can know others&#39; opinions.&lt;/div&gt;&lt;div&gt;-I want to leave a review so that I can express my opinion.&lt;/div&gt;&lt;div&gt;-I want to edit/delete my review so that I can have control over the review.&lt;/div&gt;&lt;div&gt;-I want to like/dislike a review so that I can approve or disapprove with an idea.&lt;/div&gt;" style="html=1;whiteSpace=wrap;" parent="1" vertex="1">
          <mxGeometry x="-200" y="160" width="170" height="390" as="geometry" />
        </mxCell>
        <mxCell id="9M4mmDzXD5PrZpIaR2dJ-15" value="&lt;div&gt;&lt;br&gt;&lt;/div&gt;&lt;div&gt;-I want to edit my profile so that I can have control over my account.&lt;/div&gt;&lt;div&gt;-I want to edit my lesson plan details so that I can have control over my class materials.&lt;/div&gt;&lt;div&gt;-I want a list of all my students so that I can know my students.&lt;/div&gt;&lt;div&gt;-I want to know who wants to move to my class so I can approve/reject them.&lt;/div&gt;&lt;div&gt;-I want to delete a review so that I can remove offensive remarks.&lt;/div&gt;&lt;div&gt;-I want to be reviewed only by my students to avoid misinformation.&lt;/div&gt;" style="html=1;whiteSpace=wrap;" parent="1" vertex="1">
          <mxGeometry x="-420" y="160" width="160" height="400" as="geometry" />
        </mxCell>
        <mxCell id="9M4mmDzXD5PrZpIaR2dJ-16" value="-I want to add/edit/delete users so that I can have control over the application." style="html=1;whiteSpace=wrap;" parent="1" vertex="1">
          <mxGeometry x="-580" y="160" width="120" height="400" as="geometry" />
        </mxCell>
        <mxCell id="9M4mmDzXD5PrZpIaR2dJ-19" value="" style="edgeStyle=orthogonalEdgeStyle;rounded=0;orthogonalLoop=1;jettySize=auto;html=1;" parent="1" source="9M4mmDzXD5PrZpIaR2dJ-17" target="9M4mmDzXD5PrZpIaR2dJ-2" edge="1">
          <mxGeometry relative="1" as="geometry" />
        </mxCell>
        <mxCell id="9M4mmDzXD5PrZpIaR2dJ-17" value="User" style="rounded=1;whiteSpace=wrap;html=1;arcSize=40;fontColor=#000000;fillColor=#ffffc0;strokeColor=#ff0000;" parent="1" vertex="1">
          <mxGeometry x="-740" y="60" width="120" height="40" as="geometry" />
        </mxCell>
        <mxCell id="9M4mmDzXD5PrZpIaR2dJ-18" value="" style="edgeStyle=orthogonalEdgeStyle;html=1;verticalAlign=bottom;endArrow=open;endSize=8;strokeColor=#ff0000;rounded=0;" parent="1" source="9M4mmDzXD5PrZpIaR2dJ-17" edge="1">
          <mxGeometry relative="1" as="geometry">
            <mxPoint x="-680" y="160" as="targetPoint" />
          </mxGeometry>
        </mxCell>
        <mxCell id="9M4mmDzXD5PrZpIaR2dJ-20" value="&lt;div&gt;-I want to leave suggestions for the site so that it may be improved.&lt;/div&gt;&lt;div&gt;-I want to contact the admin in case of a problem.&lt;/div&gt;&lt;div&gt;-I want to log in so I can use the app.&lt;/div&gt;" style="html=1;whiteSpace=wrap;" parent="1" vertex="1">
          <mxGeometry x="-735" y="160" width="110" height="400" as="geometry" />
        </mxCell>
      </root>
    </mxGraphModel>
  </diagram>
  <diagram id="n94kxygwaiF07-qTppdY" name="Pagină-3">
    <mxGraphModel dx="2501" dy="782" grid="1" gridSize="10" guides="1" tooltips="1" connect="1" arrows="1" fold="1" page="1" pageScale="1" pageWidth="827" pageHeight="1169" math="0" shadow="0">
      <root>
        <mxCell id="0" />
        <mxCell id="1" parent="0" />
        <mxCell id="euTt46MDOKaUU6dQbma3-2" value="" style="edgeStyle=orthogonalEdgeStyle;rounded=0;orthogonalLoop=1;jettySize=auto;html=1;" parent="1" source="tKU8SoJVnqSeab2WdJBu-1" target="euTt46MDOKaUU6dQbma3-1" edge="1">
          <mxGeometry relative="1" as="geometry">
            <Array as="points">
              <mxPoint x="-540" y="100" />
              <mxPoint x="-540" y="100" />
            </Array>
          </mxGeometry>
        </mxCell>
        <mxCell id="tKU8SoJVnqSeab2WdJBu-1" value="" style="ellipse;whiteSpace=wrap;html=1;rounded=0;shadow=0;comic=0;labelBackgroundColor=none;strokeWidth=1;fillColor=#000000;fontFamily=Verdana;fontSize=12;align=center;" parent="1" vertex="1">
          <mxGeometry x="-780" y="80" width="70" height="60" as="geometry" />
        </mxCell>
        <mxCell id="maOVK7E54zQ5LMWEoW8d-6" value="" style="edgeStyle=orthogonalEdgeStyle;rounded=0;orthogonalLoop=1;jettySize=auto;html=1;" parent="1" source="euTt46MDOKaUU6dQbma3-1" target="maOVK7E54zQ5LMWEoW8d-3" edge="1">
          <mxGeometry relative="1" as="geometry" />
        </mxCell>
        <mxCell id="euTt46MDOKaUU6dQbma3-1" value="Student has an account" style="rounded=1;whiteSpace=wrap;html=1;arcSize=40;fontColor=#000000;fillColor=#ffffc0;strokeColor=#ff0000;" parent="1" vertex="1">
          <mxGeometry x="-515" y="80" width="120" height="40" as="geometry" />
        </mxCell>
        <mxCell id="ebcq5TO-szCBOMx7OlFt-5" value="" style="edgeStyle=orthogonalEdgeStyle;rounded=0;orthogonalLoop=1;jettySize=auto;html=1;" parent="1" source="maOVK7E54zQ5LMWEoW8d-3" target="ebcq5TO-szCBOMx7OlFt-1" edge="1">
          <mxGeometry relative="1" as="geometry">
            <Array as="points">
              <mxPoint x="-555" y="220" />
              <mxPoint x="-474" y="220" />
            </Array>
          </mxGeometry>
        </mxCell>
        <mxCell id="maOVK7E54zQ5LMWEoW8d-3" value="Log in" style="html=1;whiteSpace=wrap;" parent="1" vertex="1">
          <mxGeometry x="-610" y="160" width="110" height="50" as="geometry" />
        </mxCell>
        <mxCell id="maOVK7E54zQ5LMWEoW8d-17" style="edgeStyle=orthogonalEdgeStyle;rounded=0;orthogonalLoop=1;jettySize=auto;html=1;entryX=0.5;entryY=0;entryDx=0;entryDy=0;" parent="1" source="maOVK7E54zQ5LMWEoW8d-7" target="maOVK7E54zQ5LMWEoW8d-12" edge="1">
          <mxGeometry relative="1" as="geometry" />
        </mxCell>
        <mxCell id="maOVK7E54zQ5LMWEoW8d-18" style="edgeStyle=orthogonalEdgeStyle;rounded=0;orthogonalLoop=1;jettySize=auto;html=1;entryX=0.5;entryY=0;entryDx=0;entryDy=0;" parent="1" source="maOVK7E54zQ5LMWEoW8d-7" target="maOVK7E54zQ5LMWEoW8d-13" edge="1">
          <mxGeometry relative="1" as="geometry" />
        </mxCell>
        <mxCell id="maOVK7E54zQ5LMWEoW8d-19" style="edgeStyle=orthogonalEdgeStyle;rounded=0;orthogonalLoop=1;jettySize=auto;html=1;" parent="1" source="maOVK7E54zQ5LMWEoW8d-7" target="maOVK7E54zQ5LMWEoW8d-14" edge="1">
          <mxGeometry relative="1" as="geometry" />
        </mxCell>
        <mxCell id="maOVK7E54zQ5LMWEoW8d-20" style="edgeStyle=orthogonalEdgeStyle;rounded=0;orthogonalLoop=1;jettySize=auto;html=1;" parent="1" source="maOVK7E54zQ5LMWEoW8d-7" target="maOVK7E54zQ5LMWEoW8d-15" edge="1">
          <mxGeometry relative="1" as="geometry" />
        </mxCell>
        <mxCell id="maOVK7E54zQ5LMWEoW8d-7" value="Home Page" style="html=1;whiteSpace=wrap;" parent="1" vertex="1">
          <mxGeometry x="-531.5" y="320" width="117" height="50" as="geometry" />
        </mxCell>
        <mxCell id="maOVK7E54zQ5LMWEoW8d-25" style="edgeStyle=orthogonalEdgeStyle;rounded=0;orthogonalLoop=1;jettySize=auto;html=1;entryX=0;entryY=0.5;entryDx=0;entryDy=0;" parent="1" source="maOVK7E54zQ5LMWEoW8d-9" target="maOVK7E54zQ5LMWEoW8d-22" edge="1">
          <mxGeometry relative="1" as="geometry">
            <Array as="points">
              <mxPoint x="-750" y="735" />
            </Array>
          </mxGeometry>
        </mxCell>
        <mxCell id="maOVK7E54zQ5LMWEoW8d-9" value="Change my optional preference list" style="html=1;whiteSpace=wrap;" parent="1" vertex="1">
          <mxGeometry x="-810" y="470" width="110" height="50" as="geometry" />
        </mxCell>
        <mxCell id="maOVK7E54zQ5LMWEoW8d-10" style="edgeStyle=orthogonalEdgeStyle;rounded=0;orthogonalLoop=1;jettySize=auto;html=1;entryX=0.5;entryY=0;entryDx=0;entryDy=0;" parent="1" source="maOVK7E54zQ5LMWEoW8d-7" target="maOVK7E54zQ5LMWEoW8d-9" edge="1">
          <mxGeometry relative="1" as="geometry" />
        </mxCell>
        <mxCell id="maOVK7E54zQ5LMWEoW8d-34" style="edgeStyle=orthogonalEdgeStyle;rounded=0;orthogonalLoop=1;jettySize=auto;html=1;entryX=0;entryY=0.25;entryDx=0;entryDy=0;" parent="1" source="maOVK7E54zQ5LMWEoW8d-12" target="maOVK7E54zQ5LMWEoW8d-22" edge="1">
          <mxGeometry relative="1" as="geometry">
            <Array as="points">
              <mxPoint x="-620" y="723" />
            </Array>
          </mxGeometry>
        </mxCell>
        <mxCell id="maOVK7E54zQ5LMWEoW8d-12" value="See all details of an optional" style="html=1;whiteSpace=wrap;" parent="1" vertex="1">
          <mxGeometry x="-680" y="470" width="110" height="50" as="geometry" />
        </mxCell>
        <mxCell id="maOVK7E54zQ5LMWEoW8d-33" style="edgeStyle=orthogonalEdgeStyle;rounded=0;orthogonalLoop=1;jettySize=auto;html=1;entryX=0.25;entryY=0;entryDx=0;entryDy=0;" parent="1" source="maOVK7E54zQ5LMWEoW8d-13" target="maOVK7E54zQ5LMWEoW8d-22" edge="1">
          <mxGeometry relative="1" as="geometry" />
        </mxCell>
        <mxCell id="maOVK7E54zQ5LMWEoW8d-13" value="See previous student&#39;s reviews" style="html=1;whiteSpace=wrap;" parent="1" vertex="1">
          <mxGeometry x="-560" y="470" width="110" height="50" as="geometry" />
        </mxCell>
        <mxCell id="maOVK7E54zQ5LMWEoW8d-28" style="edgeStyle=orthogonalEdgeStyle;rounded=0;orthogonalLoop=1;jettySize=auto;html=1;" parent="1" source="maOVK7E54zQ5LMWEoW8d-14" target="maOVK7E54zQ5LMWEoW8d-22" edge="1">
          <mxGeometry relative="1" as="geometry" />
        </mxCell>
        <mxCell id="maOVK7E54zQ5LMWEoW8d-14" value="Leave a review" style="html=1;whiteSpace=wrap;" parent="1" vertex="1">
          <mxGeometry x="-430" y="470" width="110" height="50" as="geometry" />
        </mxCell>
        <mxCell id="maOVK7E54zQ5LMWEoW8d-30" style="edgeStyle=orthogonalEdgeStyle;rounded=0;orthogonalLoop=1;jettySize=auto;html=1;entryX=1;entryY=0.5;entryDx=0;entryDy=0;" parent="1" source="maOVK7E54zQ5LMWEoW8d-15" target="maOVK7E54zQ5LMWEoW8d-22" edge="1">
          <mxGeometry relative="1" as="geometry">
            <Array as="points">
              <mxPoint x="-245" y="735" />
            </Array>
          </mxGeometry>
        </mxCell>
        <mxCell id="maOVK7E54zQ5LMWEoW8d-15" value="Edit/Delete my review" style="html=1;whiteSpace=wrap;" parent="1" vertex="1">
          <mxGeometry x="-300" y="470" width="110" height="50" as="geometry" />
        </mxCell>
        <mxCell id="maOVK7E54zQ5LMWEoW8d-36" value="" style="edgeStyle=orthogonalEdgeStyle;rounded=0;orthogonalLoop=1;jettySize=auto;html=1;" parent="1" source="maOVK7E54zQ5LMWEoW8d-22" target="maOVK7E54zQ5LMWEoW8d-35" edge="1">
          <mxGeometry relative="1" as="geometry" />
        </mxCell>
        <mxCell id="maOVK7E54zQ5LMWEoW8d-22" value="Log out" style="html=1;whiteSpace=wrap;" parent="1" vertex="1">
          <mxGeometry x="-510" y="710" width="110" height="50" as="geometry" />
        </mxCell>
        <mxCell id="maOVK7E54zQ5LMWEoW8d-35" value="" style="ellipse;html=1;shape=endState;fillColor=#000000;strokeColor=#ff0000;" parent="1" vertex="1">
          <mxGeometry x="-485" y="840" width="60" height="60" as="geometry" />
        </mxCell>
        <mxCell id="ebcq5TO-szCBOMx7OlFt-1" value="Valid" style="rhombus;whiteSpace=wrap;html=1;fontColor=#000000;fillColor=#ffffc0;strokeColor=#ff0000;" parent="1" vertex="1">
          <mxGeometry x="-514.5" y="240" width="80" height="40" as="geometry" />
        </mxCell>
        <mxCell id="ebcq5TO-szCBOMx7OlFt-2" value="no" style="edgeStyle=orthogonalEdgeStyle;html=1;align=left;verticalAlign=bottom;endArrow=open;endSize=8;strokeColor=#ff0000;rounded=0;exitX=1;exitY=0.5;exitDx=0;exitDy=0;entryX=1;entryY=0.5;entryDx=0;entryDy=0;" parent="1" source="ebcq5TO-szCBOMx7OlFt-1" target="maOVK7E54zQ5LMWEoW8d-3" edge="1">
          <mxGeometry x="-0.3226" y="20" relative="1" as="geometry">
            <mxPoint x="-380" y="170" as="targetPoint" />
            <mxPoint x="-430" y="235" as="sourcePoint" />
            <Array as="points">
              <mxPoint x="-380" y="260" />
              <mxPoint x="-380" y="185" />
            </Array>
            <mxPoint as="offset" />
          </mxGeometry>
        </mxCell>
        <mxCell id="ebcq5TO-szCBOMx7OlFt-3" value="yes" style="edgeStyle=orthogonalEdgeStyle;html=1;align=left;verticalAlign=top;endArrow=open;endSize=8;strokeColor=#ff0000;rounded=0;" parent="1" source="ebcq5TO-szCBOMx7OlFt-1" edge="1">
          <mxGeometry x="-0.8935" y="-30" relative="1" as="geometry">
            <mxPoint x="-470" y="320" as="targetPoint" />
            <Array as="points">
              <mxPoint x="-470" y="300" />
              <mxPoint x="-470" y="300" />
            </Array>
            <mxPoint y="-1" as="offset" />
          </mxGeometry>
        </mxCell>
      </root>
    </mxGraphModel>
  </diagram>
  <diagram id="LCXbViexlq3uWFhx6WO2" name="Pagină-4">
    <mxGraphModel dx="1545" dy="792" grid="1" gridSize="10" guides="1" tooltips="1" connect="1" arrows="1" fold="1" page="1" pageScale="1" pageWidth="827" pageHeight="1169" math="0" shadow="0">
      <root>
        <mxCell id="0" />
        <mxCell id="1" parent="0" />
        <mxCell id="qXiQFzPLWUM1lBgdGf03-1" value="" style="edgeStyle=orthogonalEdgeStyle;rounded=0;orthogonalLoop=1;jettySize=auto;html=1;" parent="1" source="qXiQFzPLWUM1lBgdGf03-2" target="qXiQFzPLWUM1lBgdGf03-4" edge="1">
          <mxGeometry relative="1" as="geometry">
            <Array as="points">
              <mxPoint x="-540" y="100" />
              <mxPoint x="-540" y="100" />
            </Array>
          </mxGeometry>
        </mxCell>
        <mxCell id="qXiQFzPLWUM1lBgdGf03-2" value="" style="ellipse;whiteSpace=wrap;html=1;rounded=0;shadow=0;comic=0;labelBackgroundColor=none;strokeWidth=1;fillColor=#000000;fontFamily=Verdana;fontSize=12;align=center;" parent="1" vertex="1">
          <mxGeometry x="-780" y="80" width="70" height="60" as="geometry" />
        </mxCell>
        <mxCell id="qXiQFzPLWUM1lBgdGf03-3" value="" style="edgeStyle=orthogonalEdgeStyle;rounded=0;orthogonalLoop=1;jettySize=auto;html=1;" parent="1" source="qXiQFzPLWUM1lBgdGf03-4" target="qXiQFzPLWUM1lBgdGf03-6" edge="1">
          <mxGeometry relative="1" as="geometry" />
        </mxCell>
        <mxCell id="qXiQFzPLWUM1lBgdGf03-4" value="User has an account" style="rounded=1;whiteSpace=wrap;html=1;arcSize=40;fontColor=#000000;fillColor=#ffffc0;strokeColor=#ff0000;" parent="1" vertex="1">
          <mxGeometry x="-515" y="80" width="120" height="40" as="geometry" />
        </mxCell>
        <mxCell id="qXiQFzPLWUM1lBgdGf03-5" value="" style="edgeStyle=orthogonalEdgeStyle;rounded=0;orthogonalLoop=1;jettySize=auto;html=1;" parent="1" source="qXiQFzPLWUM1lBgdGf03-6" target="qXiQFzPLWUM1lBgdGf03-26" edge="1">
          <mxGeometry relative="1" as="geometry">
            <Array as="points">
              <mxPoint x="-555" y="220" />
              <mxPoint x="-474" y="220" />
            </Array>
          </mxGeometry>
        </mxCell>
        <mxCell id="qXiQFzPLWUM1lBgdGf03-6" value="Log in" style="html=1;whiteSpace=wrap;" parent="1" vertex="1">
          <mxGeometry x="-610" y="160" width="110" height="50" as="geometry" />
        </mxCell>
        <mxCell id="qXiQFzPLWUM1lBgdGf03-34" style="edgeStyle=orthogonalEdgeStyle;rounded=0;orthogonalLoop=1;jettySize=auto;html=1;" parent="1" source="qXiQFzPLWUM1lBgdGf03-11" edge="1">
          <mxGeometry relative="1" as="geometry">
            <mxPoint x="-473" y="410" as="targetPoint" />
          </mxGeometry>
        </mxCell>
        <mxCell id="qXiQFzPLWUM1lBgdGf03-11" value="Home Page" style="html=1;whiteSpace=wrap;" parent="1" vertex="1">
          <mxGeometry x="-531.5" y="320" width="117" height="50" as="geometry" />
        </mxCell>
        <mxCell id="qXiQFzPLWUM1lBgdGf03-13" value="Change my optional preference list" style="html=1;whiteSpace=wrap;" parent="1" vertex="1">
          <mxGeometry x="-50" y="562.5" width="110" height="50" as="geometry" />
        </mxCell>
        <mxCell id="qXiQFzPLWUM1lBgdGf03-16" value="See all details of an optional" style="html=1;whiteSpace=wrap;" parent="1" vertex="1">
          <mxGeometry x="-820" y="570" width="110" height="50" as="geometry" />
        </mxCell>
        <mxCell id="qXiQFzPLWUM1lBgdGf03-18" value="See previous student&#39;s reviews" style="html=1;whiteSpace=wrap;" parent="1" vertex="1">
          <mxGeometry x="-700" y="570" width="110" height="50" as="geometry" />
        </mxCell>
        <mxCell id="qXiQFzPLWUM1lBgdGf03-20" value="Leave a review" style="html=1;whiteSpace=wrap;" parent="1" vertex="1">
          <mxGeometry x="-400" y="570" width="110" height="40" as="geometry" />
        </mxCell>
        <mxCell id="qXiQFzPLWUM1lBgdGf03-22" value="Edit/Delete my review" style="html=1;whiteSpace=wrap;" parent="1" vertex="1">
          <mxGeometry x="-270" y="566.25" width="90" height="50" as="geometry" />
        </mxCell>
        <mxCell id="qXiQFzPLWUM1lBgdGf03-23" value="" style="edgeStyle=orthogonalEdgeStyle;rounded=0;orthogonalLoop=1;jettySize=auto;html=1;" parent="1" source="qXiQFzPLWUM1lBgdGf03-24" target="qXiQFzPLWUM1lBgdGf03-25" edge="1">
          <mxGeometry relative="1" as="geometry" />
        </mxCell>
        <mxCell id="qXiQFzPLWUM1lBgdGf03-24" value="Log out" style="html=1;whiteSpace=wrap;" parent="1" vertex="1">
          <mxGeometry x="-510" y="870" width="110" height="50" as="geometry" />
        </mxCell>
        <mxCell id="qXiQFzPLWUM1lBgdGf03-25" value="" style="ellipse;html=1;shape=endState;fillColor=#000000;strokeColor=#ff0000;" parent="1" vertex="1">
          <mxGeometry x="-485" y="970" width="60" height="60" as="geometry" />
        </mxCell>
        <mxCell id="qXiQFzPLWUM1lBgdGf03-26" value="Valid" style="rhombus;whiteSpace=wrap;html=1;fontColor=#000000;fillColor=#ffffc0;strokeColor=#ff0000;" parent="1" vertex="1">
          <mxGeometry x="-510" y="240" width="80" height="40" as="geometry" />
        </mxCell>
        <mxCell id="qXiQFzPLWUM1lBgdGf03-27" value="no" style="edgeStyle=orthogonalEdgeStyle;html=1;align=left;verticalAlign=bottom;endArrow=open;endSize=8;strokeColor=#ff0000;rounded=0;exitX=1;exitY=0.5;exitDx=0;exitDy=0;entryX=1;entryY=0.5;entryDx=0;entryDy=0;" parent="1" source="qXiQFzPLWUM1lBgdGf03-26" target="qXiQFzPLWUM1lBgdGf03-6" edge="1">
          <mxGeometry x="-0.3226" y="20" relative="1" as="geometry">
            <mxPoint x="-380" y="170" as="targetPoint" />
            <mxPoint x="-430" y="235" as="sourcePoint" />
            <Array as="points">
              <mxPoint x="-380" y="260" />
              <mxPoint x="-380" y="185" />
            </Array>
            <mxPoint as="offset" />
          </mxGeometry>
        </mxCell>
        <mxCell id="qXiQFzPLWUM1lBgdGf03-28" value="yes" style="edgeStyle=orthogonalEdgeStyle;html=1;align=left;verticalAlign=top;endArrow=open;endSize=8;strokeColor=#ff0000;rounded=0;" parent="1" source="qXiQFzPLWUM1lBgdGf03-26" edge="1">
          <mxGeometry x="-0.8935" y="-30" relative="1" as="geometry">
            <mxPoint x="-470" y="320" as="targetPoint" />
            <Array as="points">
              <mxPoint x="-470" y="300" />
              <mxPoint x="-470" y="300" />
            </Array>
            <mxPoint y="-1" as="offset" />
          </mxGeometry>
        </mxCell>
        <mxCell id="qXiQFzPLWUM1lBgdGf03-31" value="" style="endArrow=none;html=1;rounded=0;" parent="1" edge="1">
          <mxGeometry width="50" height="50" relative="1" as="geometry">
            <mxPoint x="-546" y="410" as="sourcePoint" />
            <mxPoint x="-403" y="410" as="targetPoint" />
            <Array as="points">
              <mxPoint x="-496" y="410" />
            </Array>
          </mxGeometry>
        </mxCell>
        <mxCell id="qXiQFzPLWUM1lBgdGf03-39" value="" style="endArrow=classic;html=1;rounded=0;entryX=0.5;entryY=0;entryDx=0;entryDy=0;" parent="1" target="qXiQFzPLWUM1lBgdGf03-47" edge="1">
          <mxGeometry width="50" height="50" relative="1" as="geometry">
            <mxPoint x="-410" y="410" as="sourcePoint" />
            <mxPoint x="-480" y="570" as="targetPoint" />
          </mxGeometry>
        </mxCell>
        <mxCell id="qXiQFzPLWUM1lBgdGf03-40" value="" style="endArrow=none;html=1;rounded=0;" parent="1" edge="1">
          <mxGeometry width="50" height="50" relative="1" as="geometry">
            <mxPoint x="-555" y="830" as="sourcePoint" />
            <mxPoint x="-355" y="830" as="targetPoint" />
          </mxGeometry>
        </mxCell>
        <mxCell id="qXiQFzPLWUM1lBgdGf03-41" value="" style="endArrow=classic;html=1;rounded=0;entryX=0.5;entryY=0;entryDx=0;entryDy=0;" parent="1" target="qXiQFzPLWUM1lBgdGf03-24" edge="1">
          <mxGeometry width="50" height="50" relative="1" as="geometry">
            <mxPoint x="-455" y="830" as="sourcePoint" />
            <mxPoint x="-500" y="670" as="targetPoint" />
          </mxGeometry>
        </mxCell>
        <mxCell id="qXiQFzPLWUM1lBgdGf03-43" value="" style="endArrow=classic;html=1;rounded=0;exitX=0.5;exitY=1;exitDx=0;exitDy=0;" parent="1" source="qXiQFzPLWUM1lBgdGf03-16" edge="1">
          <mxGeometry width="50" height="50" relative="1" as="geometry">
            <mxPoint x="-550" y="720" as="sourcePoint" />
            <mxPoint x="-520" y="830" as="targetPoint" />
          </mxGeometry>
        </mxCell>
        <mxCell id="qXiQFzPLWUM1lBgdGf03-44" value="" style="endArrow=classic;html=1;rounded=0;exitX=0.5;exitY=1;exitDx=0;exitDy=0;" parent="1" source="qXiQFzPLWUM1lBgdGf03-18" edge="1">
          <mxGeometry width="50" height="50" relative="1" as="geometry">
            <mxPoint x="-550" y="720" as="sourcePoint" />
            <mxPoint x="-500" y="830" as="targetPoint" />
          </mxGeometry>
        </mxCell>
        <mxCell id="qXiQFzPLWUM1lBgdGf03-45" value="" style="endArrow=classic;html=1;rounded=0;exitX=0.5;exitY=1;exitDx=0;exitDy=0;" parent="1" source="qXiQFzPLWUM1lBgdGf03-20" edge="1">
          <mxGeometry width="50" height="50" relative="1" as="geometry">
            <mxPoint x="-550" y="720" as="sourcePoint" />
            <mxPoint x="-470" y="830" as="targetPoint" />
          </mxGeometry>
        </mxCell>
        <mxCell id="qXiQFzPLWUM1lBgdGf03-46" value="" style="endArrow=classic;html=1;rounded=0;exitX=0.5;exitY=1;exitDx=0;exitDy=0;" parent="1" source="qXiQFzPLWUM1lBgdGf03-22" edge="1">
          <mxGeometry width="50" height="50" relative="1" as="geometry">
            <mxPoint x="-300" y="630" as="sourcePoint" />
            <mxPoint x="-430" y="830" as="targetPoint" />
          </mxGeometry>
        </mxCell>
        <mxCell id="qXiQFzPLWUM1lBgdGf03-47" value="Edit profile" style="rounded=0;whiteSpace=wrap;html=1;" parent="1" vertex="1">
          <mxGeometry x="-450" y="455" width="110" height="55" as="geometry" />
        </mxCell>
        <mxCell id="qXiQFzPLWUM1lBgdGf03-49" value="Edit/Delete users" style="rounded=0;whiteSpace=wrap;html=1;" parent="1" vertex="1">
          <mxGeometry x="-160" y="567.5" width="90" height="45" as="geometry" />
        </mxCell>
        <mxCell id="qXiQFzPLWUM1lBgdGf03-51" value="" style="endArrow=classic;html=1;rounded=0;exitX=0.25;exitY=1;exitDx=0;exitDy=0;entryX=0.5;entryY=0;entryDx=0;entryDy=0;" parent="1" source="qXiQFzPLWUM1lBgdGf03-47" target="qXiQFzPLWUM1lBgdGf03-22" edge="1">
          <mxGeometry width="50" height="50" relative="1" as="geometry">
            <mxPoint x="-310" y="720" as="sourcePoint" />
            <mxPoint x="-260" y="670" as="targetPoint" />
          </mxGeometry>
        </mxCell>
        <mxCell id="qXiQFzPLWUM1lBgdGf03-52" value="" style="endArrow=classic;html=1;rounded=0;exitX=0.5;exitY=1;exitDx=0;exitDy=0;entryX=0.5;entryY=0;entryDx=0;entryDy=0;" parent="1" source="qXiQFzPLWUM1lBgdGf03-47" target="qXiQFzPLWUM1lBgdGf03-49" edge="1">
          <mxGeometry width="50" height="50" relative="1" as="geometry">
            <mxPoint x="-180" y="720" as="sourcePoint" />
            <mxPoint x="-130" y="670" as="targetPoint" />
          </mxGeometry>
        </mxCell>
        <mxCell id="qXiQFzPLWUM1lBgdGf03-53" value="Click on optionals" style="rounded=0;whiteSpace=wrap;html=1;" parent="1" vertex="1">
          <mxGeometry x="-630" y="460" width="120" height="50" as="geometry" />
        </mxCell>
        <mxCell id="qXiQFzPLWUM1lBgdGf03-55" value="" style="endArrow=classic;html=1;rounded=0;exitX=0;exitY=1;exitDx=0;exitDy=0;entryX=0.75;entryY=0;entryDx=0;entryDy=0;" parent="1" source="qXiQFzPLWUM1lBgdGf03-47" target="qXiQFzPLWUM1lBgdGf03-20" edge="1">
          <mxGeometry width="50" height="50" relative="1" as="geometry">
            <mxPoint x="-270" y="720" as="sourcePoint" />
            <mxPoint x="-220" y="670" as="targetPoint" />
          </mxGeometry>
        </mxCell>
        <mxCell id="qXiQFzPLWUM1lBgdGf03-56" value="List all users/List&amp;nbsp;with all students of each optional" style="rounded=0;whiteSpace=wrap;html=1;" parent="1" vertex="1">
          <mxGeometry x="-568" y="562.5" width="133.5" height="57.5" as="geometry" />
        </mxCell>
        <mxCell id="qXiQFzPLWUM1lBgdGf03-57" value="" style="endArrow=classic;html=1;rounded=0;exitX=0.5;exitY=1;exitDx=0;exitDy=0;entryX=0.75;entryY=0;entryDx=0;entryDy=0;" parent="1" source="qXiQFzPLWUM1lBgdGf03-53" target="qXiQFzPLWUM1lBgdGf03-56" edge="1">
          <mxGeometry width="50" height="50" relative="1" as="geometry">
            <mxPoint x="-500" y="720" as="sourcePoint" />
            <mxPoint x="-450" y="670" as="targetPoint" />
          </mxGeometry>
        </mxCell>
        <mxCell id="qXiQFzPLWUM1lBgdGf03-59" value="" style="endArrow=classic;html=1;rounded=0;exitX=0.5;exitY=1;exitDx=0;exitDy=0;" parent="1" source="qXiQFzPLWUM1lBgdGf03-56" edge="1">
          <mxGeometry width="50" height="50" relative="1" as="geometry">
            <mxPoint x="-500" y="720" as="sourcePoint" />
            <mxPoint x="-480" y="830" as="targetPoint" />
          </mxGeometry>
        </mxCell>
        <mxCell id="qXiQFzPLWUM1lBgdGf03-60" value="" style="endArrow=classic;html=1;rounded=0;entryX=0.5;entryY=0;entryDx=0;entryDy=0;" parent="1" target="qXiQFzPLWUM1lBgdGf03-53" edge="1">
          <mxGeometry width="50" height="50" relative="1" as="geometry">
            <mxPoint x="-510" y="410" as="sourcePoint" />
            <mxPoint x="-450" y="670" as="targetPoint" />
          </mxGeometry>
        </mxCell>
        <mxCell id="qXiQFzPLWUM1lBgdGf03-61" value="" style="endArrow=classic;html=1;rounded=0;exitX=0.25;exitY=1;exitDx=0;exitDy=0;entryX=0.5;entryY=0;entryDx=0;entryDy=0;" parent="1" source="qXiQFzPLWUM1lBgdGf03-53" target="qXiQFzPLWUM1lBgdGf03-18" edge="1">
          <mxGeometry width="50" height="50" relative="1" as="geometry">
            <mxPoint x="-540" y="720" as="sourcePoint" />
            <mxPoint x="-490" y="670" as="targetPoint" />
          </mxGeometry>
        </mxCell>
        <mxCell id="qXiQFzPLWUM1lBgdGf03-64" value="" style="endArrow=classic;html=1;rounded=0;exitX=0.75;exitY=1;exitDx=0;exitDy=0;entryX=0.5;entryY=0;entryDx=0;entryDy=0;" parent="1" source="qXiQFzPLWUM1lBgdGf03-47" target="qXiQFzPLWUM1lBgdGf03-13" edge="1">
          <mxGeometry width="50" height="50" relative="1" as="geometry">
            <mxPoint x="-230" y="690" as="sourcePoint" />
            <mxPoint x="-180" y="640" as="targetPoint" />
          </mxGeometry>
        </mxCell>
        <mxCell id="qXiQFzPLWUM1lBgdGf03-65" value="" style="endArrow=classic;html=1;rounded=0;exitX=0.5;exitY=1;exitDx=0;exitDy=0;" parent="1" source="qXiQFzPLWUM1lBgdGf03-13" edge="1">
          <mxGeometry width="50" height="50" relative="1" as="geometry">
            <mxPoint x="-230" y="690" as="sourcePoint" />
            <mxPoint x="-400" y="830" as="targetPoint" />
          </mxGeometry>
        </mxCell>
        <mxCell id="qXiQFzPLWUM1lBgdGf03-66" value="Change optional details" style="rounded=0;whiteSpace=wrap;html=1;" parent="1" vertex="1">
          <mxGeometry x="80" y="562.5" width="120" height="45" as="geometry" />
        </mxCell>
        <mxCell id="qXiQFzPLWUM1lBgdGf03-67" value="" style="endArrow=classic;html=1;rounded=0;exitX=1;exitY=1;exitDx=0;exitDy=0;entryX=0.5;entryY=0;entryDx=0;entryDy=0;" parent="1" source="qXiQFzPLWUM1lBgdGf03-47" target="qXiQFzPLWUM1lBgdGf03-66" edge="1">
          <mxGeometry width="50" height="50" relative="1" as="geometry">
            <mxPoint x="-230" y="690" as="sourcePoint" />
            <mxPoint x="-180" y="640" as="targetPoint" />
          </mxGeometry>
        </mxCell>
        <mxCell id="qXiQFzPLWUM1lBgdGf03-70" value="" style="endArrow=classic;html=1;rounded=0;exitX=0;exitY=1;exitDx=0;exitDy=0;entryX=0.75;entryY=0;entryDx=0;entryDy=0;" parent="1" source="qXiQFzPLWUM1lBgdGf03-53" target="qXiQFzPLWUM1lBgdGf03-16" edge="1">
          <mxGeometry width="50" height="50" relative="1" as="geometry">
            <mxPoint x="-690" y="620" as="sourcePoint" />
            <mxPoint x="-640" y="570" as="targetPoint" />
          </mxGeometry>
        </mxCell>
        <mxCell id="qXiQFzPLWUM1lBgdGf03-72" value="" style="endArrow=classic;html=1;rounded=0;exitX=0.5;exitY=1;exitDx=0;exitDy=0;" parent="1" source="qXiQFzPLWUM1lBgdGf03-66" edge="1">
          <mxGeometry width="50" height="50" relative="1" as="geometry">
            <mxPoint x="-250" y="920" as="sourcePoint" />
            <mxPoint x="-360" y="830" as="targetPoint" />
          </mxGeometry>
        </mxCell>
      </root>
    </mxGraphModel>
  </diagram>
  <diagram id="nMr9YR__xNtOEEY_rP5x" name="Page-5">
    <mxGraphModel dx="2990" dy="616" grid="1" gridSize="10" guides="1" tooltips="1" connect="1" arrows="1" fold="1" page="1" pageScale="1" pageWidth="850" pageHeight="1100" math="0" shadow="0">
      <root>
        <mxCell id="0" />
        <mxCell id="1" parent="0" />
        <mxCell id="1x8GtQD8kY4r4wPvSnDu-3" value="" style="edgeStyle=orthogonalEdgeStyle;rounded=0;orthogonalLoop=1;jettySize=auto;html=1;" parent="1" source="1x8GtQD8kY4r4wPvSnDu-4" target="1x8GtQD8kY4r4wPvSnDu-6" edge="1">
          <mxGeometry relative="1" as="geometry">
            <Array as="points">
              <mxPoint x="-555" y="220" />
              <mxPoint x="-474" y="220" />
            </Array>
          </mxGeometry>
        </mxCell>
        <mxCell id="1x8GtQD8kY4r4wPvSnDu-4" value="Log in" style="html=1;whiteSpace=wrap;" parent="1" vertex="1">
          <mxGeometry x="-610" y="160" width="110" height="50" as="geometry" />
        </mxCell>
        <mxCell id="1x8GtQD8kY4r4wPvSnDu-5" value="Home Page" style="html=1;whiteSpace=wrap;" parent="1" vertex="1">
          <mxGeometry x="-531.5" y="320" width="117" height="50" as="geometry" />
        </mxCell>
        <mxCell id="1x8GtQD8kY4r4wPvSnDu-6" value="Valid" style="rhombus;whiteSpace=wrap;html=1;fontColor=#000000;fillColor=#ffffc0;strokeColor=#ff0000;" parent="1" vertex="1">
          <mxGeometry x="-513" y="238" width="80" height="40" as="geometry" />
        </mxCell>
        <mxCell id="1x8GtQD8kY4r4wPvSnDu-7" value="no" style="edgeStyle=orthogonalEdgeStyle;html=1;align=left;verticalAlign=bottom;endArrow=open;endSize=8;strokeColor=#ff0000;rounded=0;exitX=1;exitY=0.5;exitDx=0;exitDy=0;entryX=1;entryY=0.5;entryDx=0;entryDy=0;" parent="1" edge="1">
          <mxGeometry x="-0.3226" y="20" relative="1" as="geometry">
            <mxPoint x="-500" y="183" as="targetPoint" />
            <mxPoint x="-433" y="256" as="sourcePoint" />
            <Array as="points">
              <mxPoint x="-433" y="258" />
              <mxPoint x="-380" y="258" />
              <mxPoint x="-380" y="183" />
            </Array>
            <mxPoint as="offset" />
          </mxGeometry>
        </mxCell>
        <mxCell id="1x8GtQD8kY4r4wPvSnDu-8" value="yes" style="edgeStyle=orthogonalEdgeStyle;html=1;align=left;verticalAlign=top;endArrow=open;endSize=8;strokeColor=#ff0000;rounded=0;" parent="1" source="1x8GtQD8kY4r4wPvSnDu-6" edge="1">
          <mxGeometry x="-0.8935" y="-30" relative="1" as="geometry">
            <mxPoint x="-470" y="320" as="targetPoint" />
            <Array as="points">
              <mxPoint x="-470" y="300" />
              <mxPoint x="-470" y="300" />
            </Array>
            <mxPoint y="-1" as="offset" />
          </mxGeometry>
        </mxCell>
        <mxCell id="1x8GtQD8kY4r4wPvSnDu-11" style="edgeStyle=orthogonalEdgeStyle;rounded=0;html=1;labelBackgroundColor=none;startArrow=none;startFill=0;startSize=5;endArrow=classicThin;endFill=1;endSize=5;jettySize=auto;orthogonalLoop=1;strokeWidth=1;fontFamily=Verdana;fontSize=12" parent="1" source="1x8GtQD8kY4r4wPvSnDu-12" target="1x8GtQD8kY4r4wPvSnDu-4" edge="1">
          <mxGeometry relative="1" as="geometry">
            <mxPoint x="-455" y="80" as="targetPoint" />
            <Array as="points" />
          </mxGeometry>
        </mxCell>
        <mxCell id="1x8GtQD8kY4r4wPvSnDu-12" value="" style="ellipse;whiteSpace=wrap;html=1;rounded=0;shadow=0;comic=0;labelBackgroundColor=none;strokeWidth=1;fillColor=#000000;fontFamily=Verdana;fontSize=12;align=center;" parent="1" vertex="1">
          <mxGeometry x="-575" y="30" width="40" height="40" as="geometry" />
        </mxCell>
        <mxCell id="n3d7jHiU25sMFZQrjHHF-1" value="" style="endArrow=none;html=1;rounded=0;" parent="1" edge="1">
          <mxGeometry width="50" height="50" relative="1" as="geometry">
            <mxPoint x="-544.5" y="440" as="sourcePoint" />
            <mxPoint x="-401.5" y="440" as="targetPoint" />
            <Array as="points">
              <mxPoint x="-494.5" y="440" />
            </Array>
          </mxGeometry>
        </mxCell>
        <mxCell id="n3d7jHiU25sMFZQrjHHF-2" value="" style="endArrow=classic;html=1;rounded=0;exitX=0.5;exitY=1;exitDx=0;exitDy=0;" parent="1" source="1x8GtQD8kY4r4wPvSnDu-5" edge="1">
          <mxGeometry width="50" height="50" relative="1" as="geometry">
            <mxPoint x="-310" y="440" as="sourcePoint" />
            <mxPoint x="-473" y="440" as="targetPoint" />
          </mxGeometry>
        </mxCell>
        <mxCell id="yjU4VoRvG6pTpbXib4gn-60" style="edgeStyle=orthogonalEdgeStyle;rounded=0;orthogonalLoop=1;jettySize=auto;html=1;exitX=0.25;exitY=1;exitDx=0;exitDy=0;entryX=0.5;entryY=0;entryDx=0;entryDy=0;" parent="1" source="yjU4VoRvG6pTpbXib4gn-1" target="yjU4VoRvG6pTpbXib4gn-54" edge="1">
          <mxGeometry relative="1" as="geometry" />
        </mxCell>
        <mxCell id="yjU4VoRvG6pTpbXib4gn-61" style="edgeStyle=orthogonalEdgeStyle;rounded=0;orthogonalLoop=1;jettySize=auto;html=1;exitX=0.75;exitY=1;exitDx=0;exitDy=0;entryX=0;entryY=0.5;entryDx=0;entryDy=0;" parent="1" source="yjU4VoRvG6pTpbXib4gn-1" target="yjU4VoRvG6pTpbXib4gn-9" edge="1">
          <mxGeometry relative="1" as="geometry">
            <mxPoint x="-930" y="700" as="targetPoint" />
          </mxGeometry>
        </mxCell>
        <mxCell id="yjU4VoRvG6pTpbXib4gn-1" value="Display details" style="html=1;whiteSpace=wrap;" parent="1" vertex="1">
          <mxGeometry x="-1070" y="615" width="110" height="50" as="geometry" />
        </mxCell>
        <mxCell id="yjU4VoRvG6pTpbXib4gn-3" value="Click on optional" style="rounded=0;whiteSpace=wrap;html=1;" parent="1" vertex="1">
          <mxGeometry x="-980" y="480" width="120" height="50" as="geometry" />
        </mxCell>
        <mxCell id="yjU4VoRvG6pTpbXib4gn-4" value="List all users/List&amp;nbsp;with all students of each optional" style="rounded=0;whiteSpace=wrap;html=1;" parent="1" vertex="1">
          <mxGeometry x="-943.5" y="870" width="133.5" height="57.5" as="geometry" />
        </mxCell>
        <mxCell id="yjU4VoRvG6pTpbXib4gn-7" value="" style="endArrow=classic;html=1;rounded=0;exitX=0;exitY=1;exitDx=0;exitDy=0;entryX=0.75;entryY=0;entryDx=0;entryDy=0;" parent="1" source="yjU4VoRvG6pTpbXib4gn-3" target="yjU4VoRvG6pTpbXib4gn-1" edge="1">
          <mxGeometry width="50" height="50" relative="1" as="geometry">
            <mxPoint x="-998.5" y="700" as="sourcePoint" />
            <mxPoint x="-948.5" y="650" as="targetPoint" />
          </mxGeometry>
        </mxCell>
        <mxCell id="yjU4VoRvG6pTpbXib4gn-9" value="Is admin" style="rhombus;whiteSpace=wrap;html=1;fontColor=#000000;fillColor=#ffffc0;strokeColor=#ff0000;" parent="1" vertex="1">
          <mxGeometry x="-920" y="670" width="80" height="40" as="geometry" />
        </mxCell>
        <mxCell id="yjU4VoRvG6pTpbXib4gn-10" value="no" style="edgeStyle=orthogonalEdgeStyle;html=1;align=left;verticalAlign=bottom;endArrow=open;endSize=8;strokeColor=#ff0000;rounded=0;entryX=1;entryY=0.5;entryDx=0;entryDy=0;" parent="1" source="yjU4VoRvG6pTpbXib4gn-9" target="yjU4VoRvG6pTpbXib4gn-1" edge="1">
          <mxGeometry x="0.0357" y="25" relative="1" as="geometry">
            <mxPoint x="-890" y="610" as="targetPoint" />
            <mxPoint x="-810" y="690" as="sourcePoint" />
            <Array as="points">
              <mxPoint x="-790" y="690" />
              <mxPoint x="-790" y="640" />
            </Array>
            <mxPoint as="offset" />
          </mxGeometry>
        </mxCell>
        <mxCell id="yjU4VoRvG6pTpbXib4gn-16" value="Any ?" style="rhombus;whiteSpace=wrap;html=1;fontColor=#000000;fillColor=#ffffc0;strokeColor=#ff0000;" parent="1" vertex="1">
          <mxGeometry x="-916.75" y="770" width="80" height="40" as="geometry" />
        </mxCell>
        <mxCell id="yjU4VoRvG6pTpbXib4gn-23" value="Display empty list and message" style="rounded=0;whiteSpace=wrap;html=1;" parent="1" vertex="1">
          <mxGeometry x="-790" y="870" width="133.5" height="57.5" as="geometry" />
        </mxCell>
        <mxCell id="yjU4VoRvG6pTpbXib4gn-27" value="" style="endArrow=classic;html=1;rounded=0;" parent="1" target="yjU4VoRvG6pTpbXib4gn-3" edge="1">
          <mxGeometry width="50" height="50" relative="1" as="geometry">
            <mxPoint x="-520" y="440" as="sourcePoint" />
            <mxPoint x="-650" y="470" as="targetPoint" />
          </mxGeometry>
        </mxCell>
        <mxCell id="yjU4VoRvG6pTpbXib4gn-42" style="edgeStyle=orthogonalEdgeStyle;rounded=0;orthogonalLoop=1;jettySize=auto;html=1;exitX=0.5;exitY=0;exitDx=0;exitDy=0;" parent="1" source="yjU4VoRvG6pTpbXib4gn-28" edge="1">
          <mxGeometry relative="1" as="geometry">
            <mxPoint x="-1170" y="610" as="targetPoint" />
          </mxGeometry>
        </mxCell>
        <mxCell id="yjU4VoRvG6pTpbXib4gn-28" value="Is admin" style="rhombus;whiteSpace=wrap;html=1;fontColor=#000000;fillColor=#ffffc0;strokeColor=#ff0000;" parent="1" vertex="1">
          <mxGeometry x="-1210" y="620" width="80" height="40" as="geometry" />
        </mxCell>
        <mxCell id="uzvLYVn497HEuqiwE89D-3" style="edgeStyle=orthogonalEdgeStyle;rounded=0;orthogonalLoop=1;jettySize=auto;html=1;exitX=0.5;exitY=1;exitDx=0;exitDy=0;entryX=0.5;entryY=0;entryDx=0;entryDy=0;" parent="1" source="yjU4VoRvG6pTpbXib4gn-38" target="uzvLYVn497HEuqiwE89D-2" edge="1">
          <mxGeometry relative="1" as="geometry" />
        </mxCell>
        <mxCell id="yjU4VoRvG6pTpbXib4gn-38" value="Edit optional page" style="html=1;whiteSpace=wrap;" parent="1" vertex="1">
          <mxGeometry x="-1410" y="615" width="110" height="50" as="geometry" />
        </mxCell>
        <mxCell id="yjU4VoRvG6pTpbXib4gn-39" value="" style="endArrow=classic;html=1;rounded=0;exitX=1;exitY=0.5;exitDx=0;exitDy=0;entryX=0;entryY=0.5;entryDx=0;entryDy=0;" parent="1" source="yjU4VoRvG6pTpbXib4gn-28" target="yjU4VoRvG6pTpbXib4gn-1" edge="1">
          <mxGeometry width="50" height="50" relative="1" as="geometry">
            <mxPoint x="-1150" y="620" as="sourcePoint" />
            <mxPoint x="-1100" y="570" as="targetPoint" />
          </mxGeometry>
        </mxCell>
        <mxCell id="uzvLYVn497HEuqiwE89D-15" style="edgeStyle=orthogonalEdgeStyle;rounded=0;orthogonalLoop=1;jettySize=auto;html=1;" parent="1" source="yjU4VoRvG6pTpbXib4gn-53" target="uzvLYVn497HEuqiwE89D-13" edge="1">
          <mxGeometry relative="1" as="geometry" />
        </mxCell>
        <mxCell id="yjU4VoRvG6pTpbXib4gn-53" value="Display all&amp;nbsp; review" style="rounded=0;whiteSpace=wrap;html=1;" parent="1" vertex="1">
          <mxGeometry x="-1280" y="850" width="133.5" height="50" as="geometry" />
        </mxCell>
        <mxCell id="yjU4VoRvG6pTpbXib4gn-54" value="Any ?" style="rhombus;whiteSpace=wrap;html=1;fontColor=#000000;fillColor=#ffffc0;strokeColor=#ff0000;" parent="1" vertex="1">
          <mxGeometry x="-1253.25" y="750" width="80" height="40" as="geometry" />
        </mxCell>
        <mxCell id="yjU4VoRvG6pTpbXib4gn-58" value="Display empty list" style="rounded=0;whiteSpace=wrap;html=1;" parent="1" vertex="1">
          <mxGeometry x="-1113.5" y="850" width="133.5" height="57.5" as="geometry" />
        </mxCell>
        <mxCell id="uzvLYVn497HEuqiwE89D-1" value="Show result message( ok/ failed)" style="html=1;whiteSpace=wrap;" parent="1" vertex="1">
          <mxGeometry x="-1415" y="815" width="110" height="50" as="geometry" />
        </mxCell>
        <mxCell id="uzvLYVn497HEuqiwE89D-2" value="Has saved the changes?" style="rhombus;whiteSpace=wrap;html=1;fontColor=#000000;fillColor=#ffffc0;strokeColor=#ff0000;" parent="1" vertex="1">
          <mxGeometry x="-1420" y="690" width="120" height="65" as="geometry" />
        </mxCell>
        <mxCell id="WK_vU45r_p-K49pHFyF8-7" style="edgeStyle=orthogonalEdgeStyle;rounded=0;orthogonalLoop=1;jettySize=auto;html=1;" parent="1" source="uzvLYVn497HEuqiwE89D-11" target="WK_vU45r_p-K49pHFyF8-6" edge="1">
          <mxGeometry relative="1" as="geometry" />
        </mxCell>
        <mxCell id="uzvLYVn497HEuqiwE89D-11" value="Leave review" style="rounded=0;whiteSpace=wrap;html=1;" parent="1" vertex="1">
          <mxGeometry x="-1275" y="1060" width="120" height="30" as="geometry" />
        </mxCell>
        <mxCell id="uzvLYVn497HEuqiwE89D-13" value="Has taken the course?" style="rhombus;whiteSpace=wrap;html=1;fontColor=#000000;fillColor=#ffffc0;strokeColor=#ff0000;" parent="1" vertex="1">
          <mxGeometry x="-1280" y="920" width="130" height="60" as="geometry" />
        </mxCell>
        <mxCell id="uzvLYVn497HEuqiwE89D-26" style="edgeStyle=orthogonalEdgeStyle;rounded=0;orthogonalLoop=1;jettySize=auto;html=1;exitX=0.5;exitY=0;exitDx=0;exitDy=0;entryX=0;entryY=0.5;entryDx=0;entryDy=0;" parent="1" source="uzvLYVn497HEuqiwE89D-22" target="yjU4VoRvG6pTpbXib4gn-53" edge="1">
          <mxGeometry relative="1" as="geometry">
            <Array as="points">
              <mxPoint x="-1380" y="970" />
              <mxPoint x="-1380" y="875" />
            </Array>
          </mxGeometry>
        </mxCell>
        <mxCell id="uzvLYVn497HEuqiwE89D-22" value="Display message" style="rounded=0;whiteSpace=wrap;html=1;" parent="1" vertex="1">
          <mxGeometry x="-1460" y="970" width="120" height="20" as="geometry" />
        </mxCell>
        <mxCell id="uzvLYVn497HEuqiwE89D-44" style="edgeStyle=orthogonalEdgeStyle;rounded=0;orthogonalLoop=1;jettySize=auto;html=1;exitX=0.5;exitY=1;exitDx=0;exitDy=0;entryX=0.5;entryY=0;entryDx=0;entryDy=0;" parent="1" source="uzvLYVn497HEuqiwE89D-27" target="uzvLYVn497HEuqiwE89D-43" edge="1">
          <mxGeometry relative="1" as="geometry" />
        </mxCell>
        <mxCell id="uzvLYVn497HEuqiwE89D-27" value="Change my optional list" style="rounded=0;whiteSpace=wrap;html=1;" parent="1" vertex="1">
          <mxGeometry x="-553" y="625" width="120" height="50" as="geometry" />
        </mxCell>
        <mxCell id="uzvLYVn497HEuqiwE89D-28" value="Is the period over?" style="rhombus;whiteSpace=wrap;html=1;fontColor=#000000;fillColor=#ffffc0;strokeColor=#ff0000;" parent="1" vertex="1">
          <mxGeometry x="-570" y="490" width="120" height="60" as="geometry" />
        </mxCell>
        <mxCell id="uzvLYVn497HEuqiwE89D-31" value="" style="endArrow=classic;html=1;rounded=0;entryX=0.5;entryY=0;entryDx=0;entryDy=0;" parent="1" target="uzvLYVn497HEuqiwE89D-28" edge="1">
          <mxGeometry width="50" height="50" relative="1" as="geometry">
            <mxPoint x="-500" y="440" as="sourcePoint" />
            <mxPoint x="-470" y="460" as="targetPoint" />
          </mxGeometry>
        </mxCell>
        <mxCell id="uzvLYVn497HEuqiwE89D-41" value="Show message" style="rounded=0;whiteSpace=wrap;html=1;" parent="1" vertex="1">
          <mxGeometry x="-680" y="595" width="90" height="25" as="geometry" />
        </mxCell>
        <mxCell id="uzvLYVn497HEuqiwE89D-43" value="Did Save Changes?" style="rhombus;whiteSpace=wrap;html=1;fontColor=#000000;fillColor=#ffffc0;strokeColor=#ff0000;" parent="1" vertex="1">
          <mxGeometry x="-513" y="700" width="80" height="70" as="geometry" />
        </mxCell>
        <mxCell id="uzvLYVn497HEuqiwE89D-46" value="Show message" style="rounded=0;whiteSpace=wrap;html=1;" parent="1" vertex="1">
          <mxGeometry x="-695" y="715" width="90" height="30" as="geometry" />
        </mxCell>
        <mxCell id="uzvLYVn497HEuqiwE89D-48" value="Profile page" style="rounded=0;whiteSpace=wrap;html=1;" parent="1" vertex="1">
          <mxGeometry x="-210" y="500" width="120" height="30" as="geometry" />
        </mxCell>
        <mxCell id="uzvLYVn497HEuqiwE89D-49" value="" style="endArrow=classic;html=1;rounded=0;entryX=0.571;entryY=-0.065;entryDx=0;entryDy=0;entryPerimeter=0;" parent="1" target="uzvLYVn497HEuqiwE89D-48" edge="1">
          <mxGeometry width="50" height="50" relative="1" as="geometry">
            <mxPoint x="-440" y="440" as="sourcePoint" />
            <mxPoint x="-380" y="440" as="targetPoint" />
          </mxGeometry>
        </mxCell>
        <mxCell id="uzvLYVn497HEuqiwE89D-50" value="Successful?" style="rhombus;whiteSpace=wrap;html=1;fontColor=#000000;fillColor=#ffffc0;strokeColor=#ff0000;" parent="1" vertex="1">
          <mxGeometry x="-110" y="775" width="80" height="40" as="geometry" />
        </mxCell>
        <mxCell id="uzvLYVn497HEuqiwE89D-51" value="Is admin?" style="rhombus;whiteSpace=wrap;html=1;fontColor=#000000;fillColor=#ffffc0;strokeColor=#ff0000;" parent="1" vertex="1">
          <mxGeometry x="-385" y="510" width="80" height="40" as="geometry" />
        </mxCell>
        <mxCell id="uzvLYVn497HEuqiwE89D-70" style="edgeStyle=orthogonalEdgeStyle;rounded=0;orthogonalLoop=1;jettySize=auto;html=1;entryX=0.474;entryY=0.2;entryDx=0;entryDy=0;entryPerimeter=0;" parent="1" source="uzvLYVn497HEuqiwE89D-53" target="uzvLYVn497HEuqiwE89D-68" edge="1">
          <mxGeometry relative="1" as="geometry" />
        </mxCell>
        <mxCell id="uzvLYVn497HEuqiwE89D-73" style="edgeStyle=orthogonalEdgeStyle;rounded=0;orthogonalLoop=1;jettySize=auto;html=1;exitX=1;exitY=0.5;exitDx=0;exitDy=0;" parent="1" source="uzvLYVn497HEuqiwE89D-53" target="uzvLYVn497HEuqiwE89D-72" edge="1">
          <mxGeometry relative="1" as="geometry" />
        </mxCell>
        <mxCell id="uzvLYVn497HEuqiwE89D-53" value="User Profile" style="rounded=0;whiteSpace=wrap;html=1;" parent="1" vertex="1">
          <mxGeometry x="-400" y="780" width="100" height="30" as="geometry" />
        </mxCell>
        <mxCell id="uzvLYVn497HEuqiwE89D-54" value="" style="endArrow=classic;html=1;rounded=0;entryX=0.5;entryY=0;entryDx=0;entryDy=0;" parent="1" target="uzvLYVn497HEuqiwE89D-51" edge="1">
          <mxGeometry width="50" height="50" relative="1" as="geometry">
            <mxPoint x="-460" y="440" as="sourcePoint" />
            <mxPoint x="-420" y="440" as="targetPoint" />
          </mxGeometry>
        </mxCell>
        <mxCell id="uzvLYVn497HEuqiwE89D-59" value="List of users" style="rounded=0;whiteSpace=wrap;html=1;" parent="1" vertex="1">
          <mxGeometry x="-395" y="725" width="100" height="20" as="geometry" />
        </mxCell>
        <mxCell id="uzvLYVn497HEuqiwE89D-60" value="Any users?" style="rhombus;whiteSpace=wrap;html=1;fontColor=#000000;fillColor=#ffffc0;strokeColor=#ff0000;" parent="1" vertex="1">
          <mxGeometry x="-392.5" y="630" width="90" height="40" as="geometry" />
        </mxCell>
        <mxCell id="uzvLYVn497HEuqiwE89D-64" value="Show empty list and a message" style="rounded=0;whiteSpace=wrap;html=1;" parent="1" vertex="1">
          <mxGeometry x="-190" y="635" width="110" height="30" as="geometry" />
        </mxCell>
        <mxCell id="uzvLYVn497HEuqiwE89D-66" value="" style="endArrow=classic;html=1;rounded=0;exitX=0.5;exitY=1;exitDx=0;exitDy=0;" parent="1" source="uzvLYVn497HEuqiwE89D-59" edge="1">
          <mxGeometry width="50" height="50" relative="1" as="geometry">
            <mxPoint x="-350" y="790" as="sourcePoint" />
            <mxPoint x="-345" y="780" as="targetPoint" />
          </mxGeometry>
        </mxCell>
        <mxCell id="uzvLYVn497HEuqiwE89D-68" value="Edit user" style="rounded=0;whiteSpace=wrap;html=1;" parent="1" vertex="1">
          <mxGeometry x="-395" y="845" width="95" height="25" as="geometry" />
        </mxCell>
        <mxCell id="uzvLYVn497HEuqiwE89D-74" style="edgeStyle=orthogonalEdgeStyle;rounded=0;orthogonalLoop=1;jettySize=auto;html=1;exitX=1;exitY=0.5;exitDx=0;exitDy=0;entryX=0;entryY=0.5;entryDx=0;entryDy=0;" parent="1" source="uzvLYVn497HEuqiwE89D-72" target="uzvLYVn497HEuqiwE89D-50" edge="1">
          <mxGeometry relative="1" as="geometry" />
        </mxCell>
        <mxCell id="uzvLYVn497HEuqiwE89D-72" value="Delete user" style="rounded=0;whiteSpace=wrap;html=1;" parent="1" vertex="1">
          <mxGeometry x="-240" y="785" width="90" height="20" as="geometry" />
        </mxCell>
        <mxCell id="WK_vU45r_p-K49pHFyF8-6" value="Is admin? Is my review?" style="rhombus;whiteSpace=wrap;html=1;fontColor=#000000;fillColor=#ffffc0;strokeColor=#ff0000;" parent="1" vertex="1">
          <mxGeometry x="-1280" y="1150" width="130" height="80" as="geometry" />
        </mxCell>
        <mxCell id="WK_vU45r_p-K49pHFyF8-9" value="no" style="edgeStyle=orthogonalEdgeStyle;html=1;align=left;verticalAlign=bottom;endArrow=open;endSize=8;strokeColor=#ff0000;rounded=0;entryX=0.5;entryY=1;entryDx=0;entryDy=0;exitX=1;exitY=0.5;exitDx=0;exitDy=0;" parent="1" target="WK_vU45r_p-K49pHFyF8-10" edge="1" source="WK_vU45r_p-K49pHFyF8-6">
          <mxGeometry x="-0.6558" y="11" relative="1" as="geometry">
            <mxPoint x="-960" y="1160" as="targetPoint" />
            <mxPoint x="-1130" y="1199" as="sourcePoint" />
            <Array as="points">
              <mxPoint x="-1030" y="1190" />
            </Array>
            <mxPoint as="offset" />
          </mxGeometry>
        </mxCell>
        <mxCell id="WK_vU45r_p-K49pHFyF8-10" value="Edit/Delete my review" style="rounded=0;whiteSpace=wrap;html=1;" parent="1" vertex="1">
          <mxGeometry x="-1090" y="1120" width="120" height="38" as="geometry" />
        </mxCell>
        <mxCell id="WK_vU45r_p-K49pHFyF8-11" value="yes" style="edgeStyle=orthogonalEdgeStyle;html=1;align=left;verticalAlign=top;endArrow=open;endSize=8;strokeColor=#ff0000;rounded=0;entryX=1;entryY=0.5;entryDx=0;entryDy=0;exitX=0;exitY=0.5;exitDx=0;exitDy=0;" parent="1" target="WK_vU45r_p-K49pHFyF8-13" edge="1" source="WK_vU45r_p-K49pHFyF8-6">
          <mxGeometry x="-0.2727" y="-30" relative="1" as="geometry">
            <mxPoint x="-1370" y="1200" as="targetPoint" />
            <Array as="points">
              <mxPoint x="-1330" y="1190" />
              <mxPoint x="-1330" y="1190" />
            </Array>
            <mxPoint as="offset" />
            <mxPoint x="-1281" y="1180" as="sourcePoint" />
          </mxGeometry>
        </mxCell>
        <mxCell id="WK_vU45r_p-K49pHFyF8-13" value="Delete review" style="rounded=0;whiteSpace=wrap;html=1;" parent="1" vertex="1">
          <mxGeometry x="-1490" y="1170" width="120" height="40" as="geometry" />
        </mxCell>
        <mxCell id="WK_vU45r_p-K49pHFyF8-15" value="no" style="edgeStyle=orthogonalEdgeStyle;html=1;align=left;verticalAlign=bottom;endArrow=open;endSize=8;strokeColor=#ff0000;rounded=0;exitX=1;exitY=0.5;exitDx=0;exitDy=0;entryX=1;entryY=0.5;entryDx=0;entryDy=0;" parent="1" target="1x8GtQD8kY4r4wPvSnDu-5" edge="1">
          <mxGeometry x="-0.3226" y="20" relative="1" as="geometry">
            <mxPoint x="-370" y="455" as="targetPoint" />
            <mxPoint x="-303" y="528" as="sourcePoint" />
            <Array as="points">
              <mxPoint x="-303" y="530" />
              <mxPoint x="-250" y="530" />
              <mxPoint x="-250" y="345" />
            </Array>
            <mxPoint as="offset" />
          </mxGeometry>
        </mxCell>
        <mxCell id="WK_vU45r_p-K49pHFyF8-16" value="yes" style="edgeStyle=orthogonalEdgeStyle;html=1;align=left;verticalAlign=top;endArrow=open;endSize=8;strokeColor=#ff0000;rounded=0;exitX=0.5;exitY=1;exitDx=0;exitDy=0;entryX=0.5;entryY=0;entryDx=0;entryDy=0;" parent="1" source="uzvLYVn497HEuqiwE89D-51" target="uzvLYVn497HEuqiwE89D-60" edge="1">
          <mxGeometry x="-0.8935" y="-30" relative="1" as="geometry">
            <mxPoint x="-348" y="608" as="targetPoint" />
            <Array as="points">
              <mxPoint x="-348" y="550" />
              <mxPoint x="-348" y="620" />
            </Array>
            <mxPoint y="-1" as="offset" />
            <mxPoint x="-348" y="565" as="sourcePoint" />
          </mxGeometry>
        </mxCell>
        <mxCell id="WK_vU45r_p-K49pHFyF8-18" value="yes" style="edgeStyle=orthogonalEdgeStyle;html=1;align=left;verticalAlign=top;endArrow=open;endSize=8;strokeColor=#ff0000;rounded=0;exitX=0.5;exitY=1;exitDx=0;exitDy=0;entryX=0.5;entryY=0;entryDx=0;entryDy=0;" parent="1" source="uzvLYVn497HEuqiwE89D-60" target="uzvLYVn497HEuqiwE89D-59" edge="1">
          <mxGeometry x="-0.8935" y="-30" relative="1" as="geometry">
            <mxPoint x="-345.5" y="720" as="targetPoint" />
            <Array as="points">
              <mxPoint x="-345" y="670" />
            </Array>
            <mxPoint y="-1" as="offset" />
            <mxPoint x="-345.5" y="677" as="sourcePoint" />
          </mxGeometry>
        </mxCell>
        <mxCell id="WK_vU45r_p-K49pHFyF8-19" value="no" style="edgeStyle=orthogonalEdgeStyle;html=1;align=left;verticalAlign=bottom;endArrow=open;endSize=8;strokeColor=#ff0000;rounded=0;exitX=1;exitY=0.5;exitDx=0;exitDy=0;entryX=0;entryY=0.5;entryDx=0;entryDy=0;" parent="1" source="uzvLYVn497HEuqiwE89D-60" target="uzvLYVn497HEuqiwE89D-64" edge="1">
          <mxGeometry x="-0.3226" y="20" relative="1" as="geometry">
            <mxPoint x="-240" y="649.5" as="targetPoint" />
            <mxPoint x="-280" y="649.5" as="sourcePoint" />
            <Array as="points">
              <mxPoint x="-200" y="650" />
            </Array>
            <mxPoint as="offset" />
          </mxGeometry>
        </mxCell>
        <mxCell id="WK_vU45r_p-K49pHFyF8-22" value="no" style="edgeStyle=orthogonalEdgeStyle;html=1;align=left;verticalAlign=bottom;endArrow=open;endSize=8;strokeColor=#ff0000;rounded=0;exitX=0.5;exitY=1;exitDx=0;exitDy=0;entryX=0.75;entryY=1;entryDx=0;entryDy=0;" parent="1" source="uzvLYVn497HEuqiwE89D-50" target="uzvLYVn497HEuqiwE89D-53" edge="1">
          <mxGeometry x="-0.3226" y="20" relative="1" as="geometry">
            <mxPoint x="-178" y="890" as="targetPoint" />
            <mxPoint x="-280" y="895" as="sourcePoint" />
            <Array as="points">
              <mxPoint x="-70" y="830" />
              <mxPoint x="-325" y="830" />
            </Array>
            <mxPoint as="offset" />
          </mxGeometry>
        </mxCell>
        <mxCell id="WK_vU45r_p-K49pHFyF8-24" value="yes" style="edgeStyle=orthogonalEdgeStyle;html=1;align=left;verticalAlign=top;endArrow=open;endSize=8;strokeColor=#ff0000;rounded=0;entryX=1;entryY=0.5;entryDx=0;entryDy=0;exitX=0.5;exitY=0;exitDx=0;exitDy=0;" parent="1" source="uzvLYVn497HEuqiwE89D-50" target="uzvLYVn497HEuqiwE89D-59" edge="1">
          <mxGeometry x="0.283" y="-5" relative="1" as="geometry">
            <mxPoint x="-178" y="770" as="targetPoint" />
            <Array as="points">
              <mxPoint x="-70" y="735" />
            </Array>
            <mxPoint as="offset" />
            <mxPoint x="-180" y="715" as="sourcePoint" />
          </mxGeometry>
        </mxCell>
        <mxCell id="WK_vU45r_p-K49pHFyF8-25" value="yes" style="edgeStyle=orthogonalEdgeStyle;html=1;align=left;verticalAlign=top;endArrow=open;endSize=8;strokeColor=#ff0000;rounded=0;entryX=1;entryY=0.5;entryDx=0;entryDy=0;exitX=0;exitY=0.5;exitDx=0;exitDy=0;" parent="1" source="uzvLYVn497HEuqiwE89D-43" target="uzvLYVn497HEuqiwE89D-46" edge="1">
          <mxGeometry x="0.3333" y="-30" relative="1" as="geometry">
            <mxPoint x="-590" y="729.5" as="targetPoint" />
            <Array as="points">
              <mxPoint x="-541" y="735" />
              <mxPoint x="-541" y="730" />
            </Array>
            <mxPoint as="offset" />
            <mxPoint x="-544.5" y="730" as="sourcePoint" />
          </mxGeometry>
        </mxCell>
        <mxCell id="WK_vU45r_p-K49pHFyF8-27" value="yes" style="edgeStyle=orthogonalEdgeStyle;html=1;align=left;verticalAlign=top;endArrow=open;endSize=8;strokeColor=#ff0000;rounded=0;exitX=0;exitY=0.5;exitDx=0;exitDy=0;entryX=0.5;entryY=0;entryDx=0;entryDy=0;" parent="1" source="uzvLYVn497HEuqiwE89D-28" target="uzvLYVn497HEuqiwE89D-41" edge="1">
          <mxGeometry x="0.3333" y="-30" relative="1" as="geometry">
            <mxPoint x="-650" y="580" as="targetPoint" />
            <Array as="points">
              <mxPoint x="-635" y="520" />
            </Array>
            <mxPoint as="offset" />
            <mxPoint x="-656.5" y="670" as="sourcePoint" />
          </mxGeometry>
        </mxCell>
        <mxCell id="WK_vU45r_p-K49pHFyF8-29" value="yes" style="edgeStyle=orthogonalEdgeStyle;html=1;align=left;verticalAlign=top;endArrow=open;endSize=8;strokeColor=#ff0000;rounded=0;" parent="1" edge="1">
          <mxGeometry x="0.3333" y="-30" relative="1" as="geometry">
            <mxPoint x="-877.25" y="870" as="targetPoint" />
            <Array as="points">
              <mxPoint x="-877.25" y="810" />
            </Array>
            <mxPoint as="offset" />
            <mxPoint x="-877" y="840" as="sourcePoint" />
          </mxGeometry>
        </mxCell>
        <mxCell id="WK_vU45r_p-K49pHFyF8-30" value="no" style="edgeStyle=orthogonalEdgeStyle;html=1;align=left;verticalAlign=bottom;endArrow=open;endSize=8;strokeColor=#ff0000;rounded=0;exitX=0.5;exitY=1;exitDx=0;exitDy=0;entryX=0.25;entryY=0;entryDx=0;entryDy=0;" parent="1" source="uzvLYVn497HEuqiwE89D-28" target="uzvLYVn497HEuqiwE89D-27" edge="1">
          <mxGeometry x="-0.3226" y="20" relative="1" as="geometry">
            <mxPoint x="-385" y="570" as="targetPoint" />
            <mxPoint x="-497" y="570" as="sourcePoint" />
            <Array as="points">
              <mxPoint x="-510" y="570" />
              <mxPoint x="-523" y="570" />
            </Array>
            <mxPoint as="offset" />
          </mxGeometry>
        </mxCell>
        <mxCell id="WK_vU45r_p-K49pHFyF8-31" value="yes" style="edgeStyle=orthogonalEdgeStyle;html=1;align=left;verticalAlign=top;endArrow=open;endSize=8;strokeColor=#ff0000;rounded=0;exitX=0.534;exitY=1;exitDx=0;exitDy=0;exitPerimeter=0;entryX=0.5;entryY=0;entryDx=0;entryDy=0;" parent="1" source="yjU4VoRvG6pTpbXib4gn-9" target="yjU4VoRvG6pTpbXib4gn-16" edge="1">
          <mxGeometry x="0.3333" y="-30" relative="1" as="geometry">
            <mxPoint x="-877.25" y="770" as="targetPoint" />
            <Array as="points" />
            <mxPoint as="offset" />
            <mxPoint x="-877.25" y="720" as="sourcePoint" />
          </mxGeometry>
        </mxCell>
        <mxCell id="WK_vU45r_p-K49pHFyF8-32" value="no" style="edgeStyle=orthogonalEdgeStyle;html=1;align=left;verticalAlign=bottom;endArrow=open;endSize=8;strokeColor=#ff0000;rounded=0;entryX=0.5;entryY=0;entryDx=0;entryDy=0;exitX=1;exitY=0.5;exitDx=0;exitDy=0;" parent="1" source="yjU4VoRvG6pTpbXib4gn-16" target="yjU4VoRvG6pTpbXib4gn-23" edge="1">
          <mxGeometry x="-0.7085" y="10" relative="1" as="geometry">
            <mxPoint x="-950" y="650" as="targetPoint" />
            <mxPoint x="-830" y="700" as="sourcePoint" />
            <Array as="points">
              <mxPoint x="-723" y="790" />
            </Array>
            <mxPoint as="offset" />
          </mxGeometry>
        </mxCell>
        <mxCell id="WK_vU45r_p-K49pHFyF8-33" value="no" style="edgeStyle=orthogonalEdgeStyle;html=1;align=left;verticalAlign=bottom;endArrow=open;endSize=8;strokeColor=#ff0000;rounded=0;entryX=0.5;entryY=0;entryDx=0;entryDy=0;exitX=1;exitY=0.5;exitDx=0;exitDy=0;" parent="1" source="yjU4VoRvG6pTpbXib4gn-54" target="yjU4VoRvG6pTpbXib4gn-58" edge="1">
          <mxGeometry x="-0.7085" y="10" relative="1" as="geometry">
            <mxPoint x="-1046" y="840" as="targetPoint" />
            <mxPoint x="-1160" y="770" as="sourcePoint" />
            <Array as="points">
              <mxPoint x="-1046" y="770" />
              <mxPoint x="-1046" y="850" />
            </Array>
            <mxPoint as="offset" />
          </mxGeometry>
        </mxCell>
        <mxCell id="WK_vU45r_p-K49pHFyF8-34" value="no" style="edgeStyle=orthogonalEdgeStyle;html=1;align=left;verticalAlign=bottom;endArrow=open;endSize=8;strokeColor=#ff0000;rounded=0;entryX=0.25;entryY=0;entryDx=0;entryDy=0;exitX=0.5;exitY=0;exitDx=0;exitDy=0;" parent="1" source="yjU4VoRvG6pTpbXib4gn-28" target="yjU4VoRvG6pTpbXib4gn-1" edge="1">
          <mxGeometry x="-0.0423" y="20" relative="1" as="geometry">
            <mxPoint x="-1034" y="600" as="targetPoint" />
            <mxPoint x="-1170" y="550" as="sourcePoint" />
            <Array as="points">
              <mxPoint x="-1170" y="590" />
              <mxPoint x="-1042" y="590" />
            </Array>
            <mxPoint as="offset" />
          </mxGeometry>
        </mxCell>
        <mxCell id="eUR8jUDkiTdpgugJ_Ms9-1" value="yes" style="edgeStyle=orthogonalEdgeStyle;html=1;align=left;verticalAlign=top;endArrow=open;endSize=8;strokeColor=#ff0000;rounded=0;exitX=0.5;exitY=1;exitDx=0;exitDy=0;entryX=0.5;entryY=0;entryDx=0;entryDy=0;" edge="1" parent="1" source="yjU4VoRvG6pTpbXib4gn-54" target="yjU4VoRvG6pTpbXib4gn-53">
          <mxGeometry x="-0.3344" y="-27" relative="1" as="geometry">
            <mxPoint x="-1215.5" y="845" as="targetPoint" />
            <Array as="points">
              <mxPoint x="-1213" y="830" />
              <mxPoint x="-1213" y="830" />
            </Array>
            <mxPoint as="offset" />
            <mxPoint x="-1215.5" y="805" as="sourcePoint" />
          </mxGeometry>
        </mxCell>
        <mxCell id="eUR8jUDkiTdpgugJ_Ms9-2" value="yes" style="edgeStyle=orthogonalEdgeStyle;html=1;align=left;verticalAlign=top;endArrow=open;endSize=8;strokeColor=#ff0000;rounded=0;exitX=0.5;exitY=1;exitDx=0;exitDy=0;entryX=0.5;entryY=0;entryDx=0;entryDy=0;" edge="1" parent="1" source="uzvLYVn497HEuqiwE89D-13" target="uzvLYVn497HEuqiwE89D-11">
          <mxGeometry x="-0.3344" y="-27" relative="1" as="geometry">
            <mxPoint x="-1215" y="1040" as="targetPoint" />
            <Array as="points" />
            <mxPoint as="offset" />
            <mxPoint x="-1215.5" y="1000" as="sourcePoint" />
          </mxGeometry>
        </mxCell>
        <mxCell id="eUR8jUDkiTdpgugJ_Ms9-3" value="yes" style="edgeStyle=orthogonalEdgeStyle;html=1;align=left;verticalAlign=top;endArrow=open;endSize=8;strokeColor=#ff0000;rounded=0;exitX=0;exitY=0.5;exitDx=0;exitDy=0;entryX=1;entryY=0.5;entryDx=0;entryDy=0;" edge="1" parent="1" source="yjU4VoRvG6pTpbXib4gn-28" target="yjU4VoRvG6pTpbXib4gn-38">
          <mxGeometry x="-0.3344" y="-27" relative="1" as="geometry">
            <mxPoint x="-1260" y="705" as="targetPoint" />
            <Array as="points" />
            <mxPoint as="offset" />
            <mxPoint x="-1260" y="645" as="sourcePoint" />
          </mxGeometry>
        </mxCell>
        <mxCell id="eUR8jUDkiTdpgugJ_Ms9-4" value="no" style="edgeStyle=orthogonalEdgeStyle;html=1;align=left;verticalAlign=bottom;endArrow=open;endSize=8;strokeColor=#ff0000;rounded=0;exitX=0;exitY=0.5;exitDx=0;exitDy=0;entryX=0;entryY=0.5;entryDx=0;entryDy=0;" edge="1" parent="1" source="uzvLYVn497HEuqiwE89D-2" target="yjU4VoRvG6pTpbXib4gn-38">
          <mxGeometry x="-0.7176" y="18" relative="1" as="geometry">
            <mxPoint x="-1390" y="830" as="targetPoint" />
            <mxPoint x="-1163" y="780" as="sourcePoint" />
            <Array as="points">
              <mxPoint x="-1480" y="723" />
              <mxPoint x="-1480" y="640" />
            </Array>
            <mxPoint as="offset" />
          </mxGeometry>
        </mxCell>
        <mxCell id="eUR8jUDkiTdpgugJ_Ms9-5" value="yes" style="edgeStyle=orthogonalEdgeStyle;html=1;align=left;verticalAlign=top;endArrow=open;endSize=8;strokeColor=#ff0000;rounded=0;exitX=0.5;exitY=1;exitDx=0;exitDy=0;entryX=0.5;entryY=0;entryDx=0;entryDy=0;" edge="1" parent="1" source="uzvLYVn497HEuqiwE89D-2" target="uzvLYVn497HEuqiwE89D-1">
          <mxGeometry x="-0.3344" y="-27" relative="1" as="geometry">
            <mxPoint x="-1360" y="825" as="targetPoint" />
            <Array as="points" />
            <mxPoint as="offset" />
            <mxPoint x="-1360" y="765" as="sourcePoint" />
          </mxGeometry>
        </mxCell>
        <mxCell id="eUR8jUDkiTdpgugJ_Ms9-7" value="no" style="edgeStyle=orthogonalEdgeStyle;html=1;align=left;verticalAlign=bottom;endArrow=open;endSize=8;strokeColor=#ff0000;rounded=0;entryX=1;entryY=0.75;entryDx=0;entryDy=0;exitX=0;exitY=0.5;exitDx=0;exitDy=0;" edge="1" parent="1" source="uzvLYVn497HEuqiwE89D-13" target="uzvLYVn497HEuqiwE89D-22">
          <mxGeometry x="0.5789" y="-15" relative="1" as="geometry">
            <mxPoint x="-1275" y="1010" as="targetPoint" />
            <mxPoint x="-1290" y="950" as="sourcePoint" />
            <Array as="points">
              <mxPoint x="-1290" y="950" />
              <mxPoint x="-1290" y="985" />
            </Array>
            <mxPoint as="offset" />
          </mxGeometry>
        </mxCell>
      </root>
    </mxGraphModel>
  </diagram>
</mxfile>
